<?xml version="1.0" encoding="UTF-8"?><svg id="Layer_1" xmlns="http://www.w3.org/2000/svg" viewBox="0 0 771.08 296.4"><defs><style>.cls-1{fill:#231f20;}</style></defs><path class="cls-1" d="M0,133V0H63.76c15.06,0,23.67,1.37,31.1,5.08,10.37,5.09,17.02,15.06,17.02,28.36,0,16.43-9.97,25.82-21.12,29.53,13.88,4.31,25.23,13.89,25.23,32.67,0,13.3-5.49,23.27-14.88,29.73-9.58,6.64-21.91,7.63-33.83,7.63H0ZM71,29.53c-2.93-1.95-6.46-2.35-14.08-2.35h-21.12v24.45h20.93c8.61,0,11.93-.39,15.26-3.13,2.35-2.15,3.52-5.48,3.52-9.59s-1.75-7.63-4.5-9.39ZM35.79,105.42h21.91c7.24,0,10.56-.39,13.3-1.37,5.08-1.76,8.02-6.06,8.02-12.32s-2.94-10.57-8.02-12.32c-2.74-.98-6.06-1.38-13.3-1.38h-21.91v27.38Z"/><path class="cls-1" d="M162.51,133h-35.79V39.9h35.4v12.32c2.55-7.04,13.1-14.47,26.21-14.47,1.17,0,2.15,0,3.32,.19v30.71c-3.13-.78-6.64-.98-9.19-.98-10.95,0-16.43,5.29-18.58,13.11-.98,3.52-1.38,7.82-1.38,12.52v39.7Z"/><path class="cls-1" d="M245.82,37.35c30.51,0,50.85,18.97,50.85,49.29s-19.96,48.7-50.85,48.7-50.65-18.19-50.65-48.7,20.14-49.29,50.65-49.29Zm0,72.76c10.95,0,15.45-10.36,15.45-23.86s-4.5-23.87-15.45-23.87-15.26,10.37-15.26,23.87,4.31,23.86,15.26,23.86Z"/><path class="cls-1" d="M353.57,37.35c30.51,0,50.85,18.97,50.85,49.29s-19.96,48.7-50.85,48.7-50.65-18.19-50.65-48.7,20.14-49.29,50.65-49.29Zm0,72.76c10.95,0,15.45-10.36,15.45-23.86s-4.5-23.87-15.45-23.87-15.26,10.37-15.26,23.87,4.31,23.86,15.26,23.86Z"/><path class="cls-1" d="M451.34,0V64.94l23.08-25.04h44.79l-39.32,38.14,40.88,54.96h-42.84l-21.31-32.86-5.29,5.08v27.78h-35.79V0h35.79Z"/><path class="cls-1" d="M562.22,133h-35.99V0h35.59l.4,133Z"/><path class="cls-1" d="M568.47,39.9h37.35l9,39.51c1.95,8.41,3.71,18.78,4.3,22.29h.2c.58-3.52,2.35-14.08,4.11-22.1l8.61-39.7h37.16l-34.42,102.49c-3.32,9.97-6.26,16.63-10.95,20.93-5.48,4.89-13.1,6.85-27.77,6.85-7.04,0-12.13-.4-17.61-.98v-24.65s4.51,.4,8.02,.4c6.26,0,9.59-.98,11.54-3.33,.98-1.17,1.56-2.73,1.56-5.09s-.58-5.47-2.15-10.16l-28.95-86.46Z"/><path class="cls-1" d="M710.64,50.07c4.89-6.84,14.67-12.52,27.97-12.52,10.37,0,18.78,2.93,24.25,9,5.87,6.64,8.22,13.29,8.22,33.83v52.62h-35.8v-52.81c0-8.99-1.37-15.65-11.34-15.65-8.21,0-12.9,5.49-12.9,15.26v53.2h-35.8V39.9h35.4v10.17Z"/><path class="cls-1" d="M35.79,190.98v20.73h57.31v29.53H35.79v22.7H102.68v30.12H0V161.05H98.77v29.93H35.79Z"/><path class="cls-1" d="M149.42,198.41c13.49,0,22.68,5.67,27.18,11.15v-48.51h35.79v133h-35.79v-8.41c-4.31,4.69-13.3,10.75-26.8,10.75-24.65,0-40.88-18.38-40.88-48.9s16.63-49.09,40.49-49.09Zm11.14,72.76c10.57,0,16.63-9.77,16.63-24.05s-6.06-23.86-16.63-23.86-15.45,8.99-15.45,23.86,4.89,24.05,15.45,24.05Z"/><path class="cls-1" d="M264.39,190.78h-35.99v-29.73h35.6l.39,29.73Zm0,103.27h-35.99v-93.1h35.6l.39,93.1Z"/><path class="cls-1" d="M325.6,259.05c0,5.28,.58,7.82,2.35,9.59,1.96,2.15,5.67,2.73,10.17,2.73,3.91,0,6.66-.4,7.82-.58v23.66c-3.71,.6-11.34,1.56-20.93,1.56-12.32,0-25.23-1.56-30.31-8.41-4.11-5.48-4.69-10.37-4.69-19.36v-43.03h-17.8v-24.25h17.8v-31.1l35.59-6.26v37.35h20.15v24.25h-20.15v33.84Z"/><path class="cls-1" d="M393.26,190.78h-35.99v-29.73h35.6l.39,29.73Zm0,103.27h-35.99v-93.1h35.6l.39,93.1Z"/><path class="cls-1" d="M454.85,198.41c30.51,0,50.85,18.97,50.85,49.29s-19.96,48.7-50.85,48.7-50.65-18.19-50.65-48.7,20.14-49.29,50.65-49.29Zm0,72.76c10.95,0,15.45-10.36,15.45-23.86s-4.5-23.87-15.45-23.87-15.26,10.37-15.26,23.87,4.31,23.86,15.26,23.86Z"/><path class="cls-1" d="M552.24,211.12c4.89-6.84,14.67-12.52,27.97-12.52,10.37,0,18.78,2.93,24.25,9,5.87,6.64,8.22,13.29,8.22,33.83v52.62h-35.79v-52.81c0-8.99-1.38-15.65-11.35-15.65-8.22,0-12.91,5.49-12.91,15.26v53.2h-35.79v-93.1h35.4v10.17Z"/><path class="cls-1" d="M639.26,258.45c6.06,7.82,17.01,14.48,31.48,14.48,8.61,0,13.3-1.96,13.3-6.06,0-4.31-6.26-5.48-14.28-7.04l-12.32-2.55c-14.28-3.13-32.66-7.43-32.66-27.97,0-22.69,22.69-30.91,42.05-30.91s34.82,7.82,42.84,15.46l-17.02,17.6c-6.06-4.89-15.06-9.77-26.99-9.77-5.48,0-10.75,1.56-10.75,5.47,0,4.31,5.28,5.29,13.49,6.85l13.7,2.73c16.43,3.33,30.9,9.59,30.9,27.97,0,22.1-19.56,31.69-43.61,31.69-21.32,0-38.73-8.02-49.09-20.54l18.97-17.41Z"/></svg>