<svg width="46" height="36" viewBox="0 0 46 36" fill="none" xmlns="http://www.w3.org/2000/svg">
<path d="M38.5649 30.3187C38.5649 30.8652 38.1976 31.2589 37.6705 31.2589C37.1274 31.2589 36.776 30.8411 36.776 30.3187C36.776 29.7964 37.1274 29.3786 37.6705 29.3786C38.1976 29.3786 38.5649 29.7964 38.5649 30.3187ZM13.7441 29.3786C13.1771 29.3786 12.8497 29.7964 12.8497 30.3187C12.8497 30.8411 13.1771 31.2589 13.7441 31.2589C14.2632 31.2589 14.6146 30.8652 14.6146 30.3187C14.6066 29.7964 14.2632 29.3786 13.7441 29.3786ZM23.1278 29.3545C22.6965 29.3545 22.433 29.6357 22.3691 30.0536H23.8944C23.8226 29.5955 23.5431 29.3545 23.1278 29.3545ZM31.7368 29.3786C31.1938 29.3786 30.8663 29.7964 30.8663 30.3187C30.8663 30.8411 31.1938 31.2589 31.7368 31.2589C32.2799 31.2589 32.6313 30.8652 32.6313 30.3187C32.6313 29.7964 32.2799 29.3786 31.7368 29.3786ZM40.1941 31.4759C40.1941 31.5 40.2181 31.5161 40.2181 31.5643C40.2181 31.5884 40.1941 31.6045 40.1941 31.6527C40.1701 31.6768 40.1701 31.6929 40.1542 31.717C40.1302 31.7411 40.1142 31.7571 40.0663 31.7571C40.0424 31.7813 40.0264 31.7812 39.9785 31.7812C39.9545 31.7812 39.9385 31.7813 39.8906 31.7571C39.8667 31.7571 39.8507 31.733 39.8267 31.717C39.8028 31.6929 39.7868 31.6768 39.7868 31.6527C39.7629 31.6125 39.7628 31.5884 39.7628 31.5643C39.7628 31.5241 39.7629 31.5 39.7868 31.4759C39.7868 31.4357 39.8108 31.4116 39.8267 31.3875C39.8507 31.3634 39.8667 31.3634 39.8906 31.3473C39.9306 31.3232 39.9545 31.3232 39.9785 31.3232C40.0184 31.3232 40.0424 31.3232 40.0663 31.3473C40.1063 31.3714 40.1302 31.3714 40.1542 31.3875C40.1781 31.4036 40.1701 31.4357 40.1941 31.4759ZM40.0184 31.5884C40.0583 31.5884 40.0583 31.5643 40.0823 31.5643C40.1063 31.5402 40.1063 31.5241 40.1063 31.5C40.1063 31.4759 40.1063 31.4598 40.0823 31.4357C40.0583 31.4357 40.0424 31.4116 39.9944 31.4116H39.8667V31.6929H39.9306V31.5804H39.9545L40.0424 31.6929H40.1063L40.0184 31.5884ZM46 3.85714V32.1429C46 34.2723 44.283 36 42.1667 36H3.83333C1.71701 36 0 34.2723 0 32.1429V3.85714C0 1.72768 1.71701 0 3.83333 0H42.1667C44.283 0 46 1.72768 46 3.85714ZM5.11111 15.075C5.11111 21.2223 10.0705 26.2045 16.1719 26.2045C18.3441 26.2045 20.4764 25.5455 22.2813 24.3482C16.4594 19.583 16.4993 10.5911 22.2813 5.82589C20.4764 4.62054 18.3441 3.96964 16.1719 3.96964C10.0705 3.96161 5.11111 8.95179 5.11111 15.075ZM23 23.8179C28.6302 19.3982 28.6063 10.7839 23 6.34018C17.3938 10.7839 17.3698 19.4062 23 23.8179ZM11.6358 29.9491C11.6358 29.25 11.1806 28.792 10.4618 28.7679C10.0944 28.7679 9.70312 28.8804 9.43958 29.2902C9.24792 28.9607 8.92049 28.7679 8.46528 28.7679C8.16181 28.7679 7.85833 28.8804 7.61875 29.2018V28.8482H6.96389V31.7973H7.61875C7.61875 30.2786 7.4191 29.3705 8.3375 29.3705C9.15208 29.3705 8.99236 30.1902 8.99236 31.7973H9.62326C9.62326 30.3268 9.42361 29.3705 10.342 29.3705C11.1566 29.3705 10.9969 30.1741 10.9969 31.7973H11.6517V29.9491H11.6358ZM15.2215 28.8482H14.5906V29.2018C14.375 28.9366 14.0715 28.7679 13.6563 28.7679C12.8337 28.7679 12.2028 29.4268 12.2028 30.3187C12.2028 31.2187 12.8337 31.8696 13.6563 31.8696C14.0715 31.8696 14.375 31.717 14.5906 31.4357V31.8054H15.2215V28.8482ZM18.4559 30.9054C18.4559 29.7 16.6271 30.2464 16.6271 29.6839C16.6271 29.2259 17.5774 29.2982 18.1045 29.5955L18.3681 29.0732C17.6174 28.583 15.9563 28.5911 15.9563 29.7321C15.9563 30.8812 17.7851 30.3991 17.7851 30.9375C17.7851 31.4437 16.7069 31.4036 16.1319 31.0018L15.8524 31.508C16.7469 32.1187 18.4559 31.9902 18.4559 30.9054ZM21.283 31.6527L21.1073 31.1062C20.8038 31.275 20.133 31.4598 20.133 30.7768V29.4429H21.1792V28.8482H20.133V27.9482H19.4781V28.8482H18.8712V29.4348H19.4781V30.7768C19.4781 32.1911 20.8597 31.9339 21.283 31.6527ZM22.3451 30.5759H24.5413C24.5413 29.2741 23.9503 28.7598 23.1517 28.7598C22.3052 28.7598 21.6983 29.3946 21.6983 30.3107C21.6983 31.958 23.5031 32.2312 24.3976 31.4518L24.0941 30.9696C23.4712 31.4839 22.5288 31.4357 22.3451 30.5759ZM27.0649 28.8482C26.6976 28.6875 26.1385 28.7036 25.851 29.2018V28.8482H25.1962V31.7973H25.851V30.1339C25.851 29.2018 26.6097 29.3223 26.8733 29.4589L27.0649 28.8482ZM27.9115 30.3187C27.9115 29.4027 28.8379 29.1054 29.5646 29.6437L29.8681 29.1214C28.9417 28.3902 27.2566 28.792 27.2566 30.3268C27.2566 31.9179 29.0455 32.2393 29.8681 31.5321L29.5646 31.0098C28.8299 31.5321 27.9115 31.2187 27.9115 30.3187ZM33.2382 28.8482H32.5833V29.2018C31.9205 28.3179 30.1955 28.8161 30.1955 30.3187C30.1955 31.8616 31.9844 32.3036 32.5833 31.4357V31.8054H33.2382V28.8482ZM35.9295 28.8482C35.7378 28.7518 35.051 28.6152 34.7156 29.2018V28.8482H34.0847V31.7973H34.7156V30.1339C34.7156 29.25 35.4344 29.3062 35.7378 29.4589L35.9295 28.8482ZM39.1479 27.6509H38.517V29.2018C37.8622 28.3259 36.1292 28.792 36.1292 30.3187C36.1292 31.8777 37.926 32.2955 38.517 31.4357V31.8054H39.1479V27.6509ZM39.7549 21.6161V21.9857H39.8188V21.6161H39.9705V21.5518H39.6031V21.6161H39.7549ZM40.2819 31.5643C40.2819 31.5241 40.2819 31.4759 40.258 31.4357C40.234 31.4116 40.2181 31.3714 40.1941 31.3473C40.1701 31.3232 40.1302 31.3071 40.1063 31.283C40.0663 31.283 40.0184 31.2589 39.9785 31.2589C39.9545 31.2589 39.9146 31.283 39.8667 31.283C39.8267 31.3071 39.8028 31.3232 39.7788 31.3473C39.7389 31.3714 39.7149 31.4116 39.7149 31.4357C39.691 31.4759 39.691 31.5241 39.691 31.5643C39.691 31.5884 39.691 31.6286 39.7149 31.6768C39.7149 31.7009 39.7389 31.7411 39.7788 31.7652C39.8028 31.7893 39.8188 31.8054 39.8667 31.8295C39.9066 31.8536 39.9545 31.8536 39.9785 31.8536C40.0184 31.8536 40.0663 31.8536 40.1063 31.8295C40.1302 31.8054 40.1701 31.7893 40.1941 31.7652C40.2181 31.7411 40.234 31.7009 40.258 31.6768C40.2819 31.6286 40.2819 31.5884 40.2819 31.5643ZM40.5375 21.5438H40.4257L40.2979 21.825L40.1701 21.5438H40.0583V21.9777H40.1222V21.6482L40.25 21.9295H40.3378L40.4497 21.6482V21.9777H40.5375V21.5438ZM40.8889 15.075C40.8889 8.95179 35.9295 3.96161 29.8281 3.96161C27.6559 3.96161 25.5236 4.62054 23.7188 5.81786C29.4767 10.583 29.5646 19.5991 23.7188 24.3402C25.5236 25.5455 27.6719 26.1964 29.8281 26.1964C35.9295 26.2045 40.8889 21.2223 40.8889 15.075Z" fill="#1B1B1B"/>
</svg>
