<svg width="32" height="26" viewBox="0 0 32 26" fill="none" xmlns="http://www.w3.org/2000/svg">
<path d="M26.117 11.6282C26.117 11.6282 26.539 13.6952 26.634 14.1282H24.779L25.668 11.7112C25.657 11.7282 25.851 11.2052 25.962 10.8832L26.117 11.6282ZM32 3.22218V22.7782C31.9998 23.4854 31.7187 24.1636 31.2186 24.6637C30.7185 25.1638 30.0403 25.4449 29.333 25.4452H2.66602C1.95877 25.4449 1.28056 25.1638 0.780462 24.6637C0.28036 24.1636 -0.000711526 23.4854 -0.000976562 22.7782V3.22218C-0.000711526 2.51492 0.28036 1.83672 0.780462 1.33661C1.28056 0.836513 1.95877 0.555441 2.66602 0.555176H29.333C30.0403 0.555441 30.7185 0.836513 31.2186 1.33661C31.7187 1.83672 31.9998 2.51492 32 3.22218ZM8.47202 17.1782L11.983 8.55618H9.62202L7.43902 14.4452L7.20002 13.2512L6.42202 9.28418C6.29402 8.73418 5.90002 8.57818 5.41102 8.55618H1.81702L1.77802 8.72818C2.6011 8.9301 3.39062 9.25008 4.12202 9.67818L6.11102 17.1782H8.47202ZM13.717 17.1892L15.117 8.55618H12.884L11.49 17.1892H13.717ZM21.489 14.3672C21.5 13.3842 20.9 12.6342 19.617 12.0172C18.834 11.6222 18.356 11.3562 18.356 10.9502C18.367 10.5832 18.762 10.2052 19.639 10.2052C20.2102 10.1891 20.7778 10.3011 21.3 10.5332L21.5 10.6272L21.806 8.76018C21.1676 8.51578 20.4896 8.39137 19.806 8.39318C17.6 8.39318 16.05 9.57118 16.039 11.2482C16.022 12.4872 17.15 13.1762 17.995 13.5922C18.856 14.0142 19.151 14.2922 19.151 14.6642C19.14 15.2422 18.451 15.5082 17.812 15.5082C16.923 15.5082 16.445 15.3692 15.717 15.0472L15.423 14.9082L15.112 16.8472C15.634 17.0862 16.601 17.2972 17.601 17.3082C19.945 17.3132 21.473 16.1522 21.49 14.3642L21.489 14.3672ZM29.333 17.1892L27.533 8.55618H25.805C25.272 8.55618 24.866 8.71218 24.638 9.27318L21.321 17.1902H23.665C23.665 17.1902 24.048 16.1232 24.132 15.8962H26.999C27.066 16.2022 27.266 17.1902 27.266 17.1902L29.333 17.1892Z" fill="#1B1B1B"/>
</svg>
