<svg width="747" height="747" viewBox="0 0 747 747" fill="none" xmlns="http://www.w3.org/2000/svg">
<path fill-rule="evenodd" clip-rule="evenodd" d="M586.254 477.653C632.019 503.085 677.811 528.522 723.574 553.956C743.271 564.893 751.912 588.101 744.158 609.268C704.783 716.836 589.464 773.614 480.958 734.013C258.771 652.914 94.0777 488.213 12.971 266.026C-26.633 157.521 30.1483 42.1995 137.716 2.82618C158.883 -4.92902 182.091 3.7116 193.055 23.4102C218.462 69.1755 243.899 114.968 269.331 160.73C281.253 182.2 278.451 207.684 262.133 226.017C240.764 250.064 219.398 274.105 198.029 298.126C243.644 409.205 337.776 503.34 448.856 548.953C472.877 527.583 496.918 506.218 520.965 484.849C539.325 468.532 564.788 465.729 586.252 477.651L586.254 477.653Z" fill="#171616"/>
</svg>
