<svg width="19" height="19" viewBox="0 0 19 19" fill="none" xmlns="http://www.w3.org/2000/svg">
<path d="M19 2.03571V16.9643C19 18.0882 18.0882 19 16.9643 19H6.54821C6.96384 18.3045 7.49821 17.3036 7.71027 16.485C7.8375 15.9973 8.35915 14.0083 8.35915 14.0083C8.69844 14.6571 9.69085 15.2042 10.7469 15.2042C13.8895 15.2042 16.15 12.3161 16.15 8.72812C16.15 5.28862 13.3424 2.71429 9.72902 2.71429C5.23348 2.71429 2.85 5.72969 2.85 9.01652C2.85 10.5433 3.66429 12.4433 4.96205 13.0498C5.16138 13.1431 5.26317 13.1007 5.30982 12.9098C5.34375 12.7656 5.52187 12.0574 5.59821 11.7308C5.62366 11.6248 5.61094 11.5357 5.52612 11.4339C5.09777 10.9123 4.75 9.95379 4.75 9.05893C4.75 6.76027 6.48884 4.53795 9.45335 4.53795C12.0107 4.53795 13.8047 6.28103 13.8047 8.77478C13.8047 11.5908 12.3839 13.5417 10.5306 13.5417C9.50848 13.5417 8.74509 12.6978 8.98683 11.6587C9.27946 10.4203 9.84777 9.08437 9.84777 8.18951C9.84777 5.94174 6.64576 6.25134 6.64576 9.24978C6.64576 10.1701 6.95536 10.7978 6.95536 10.7978C5.62366 16.4299 5.42433 16.502 5.7 18.9661L5.7933 19H2.03571C0.91183 19 0 18.0882 0 16.9643V2.03571C0 0.91183 0.91183 0 2.03571 0H16.9643C18.0882 0 19 0.91183 19 2.03571Z" fill="#1B1B1B"/>
</svg>
