<svg width="32" height="10" viewBox="0 0 32 10" fill="none" xmlns="http://www.w3.org/2000/svg">
<path d="M29.3 6.4251L31.965 3.4301H28.845L27.76 4.6701L26.635 3.4301H20.7V2.6301H23.505V0.225098H15.945V4.0001H15.92C15.44 3.4501 14.845 3.2601 14.15 3.2601C12.73 3.2601 11.66 4.2301 11.285 5.5051C10.385 2.5351 6.415 2.6251 5.19 4.8051V3.5951H2.45V2.2851H5.45V0.230097H0V9.4501H2.45V5.5751H4.895C4.82 5.8601 4.78 6.1651 4.78 6.4851C4.78 10.1401 9.91 11.0551 11.29 7.6701H9.19C8.455 8.7151 6.9 8.1151 6.9 6.9401H11.175C11.36 8.4651 12.545 9.7851 14.18 9.7851C14.885 9.7851 15.53 9.4401 15.925 8.8551H15.95V9.4501H26.56L27.665 8.2001L28.78 9.4501H32L29.3 6.4251ZM6.965 5.5951C7.27 4.2801 9.05 4.3151 9.29 5.5951H6.965ZM14.635 8.0401C12.905 8.0401 12.935 4.9001 14.635 4.9001C16.265 4.9001 16.36 8.0401 14.635 8.0401ZM23.025 8.9951H18.305V0.670097H23.055V2.1801H20.25V3.8751H23.025V5.2801H20.22V7.5151H23.025V8.9951ZM20.73 7.0051V5.7851H23.535V3.5851L26.07 6.4351L23.535 9.2851V7.0051H20.73ZM27.66 7.5201L26.355 8.9951H24.45L26.73 6.4351L24.45 3.8751H26.435L27.765 5.3401L29.045 3.8751H30.97L28.7 6.4251L31 8.9951H28.975L27.66 7.5201Z" fill="#1B1B1B"/>
</svg>
