<svg width="47" height="36" viewBox="0 0 47 36" fill="none" xmlns="http://www.w3.org/2000/svg">
<path d="M42.4632 13.1866C42.4632 12.5518 42.0144 12.2143 41.1903 12.2143H40.7905V14.2152H41.174C42.0144 14.2152 42.4632 13.8616 42.4632 13.1866ZM43.0833 0H3.91667C1.75434 0 0 1.72768 0 3.85714V32.1429C0 34.2723 1.75434 36 3.91667 36H43.0833C45.2457 36 47 34.2723 47 32.1429V3.85714C47 1.72768 45.2457 0 43.0833 0ZM39.4849 11.1616C41.329 11.1616 43.8014 10.8321 43.8014 13.1223C43.8014 14.1348 43.2628 14.7857 42.2755 14.9866L44.3807 17.7509H42.7814L40.97 15.1152H40.7905V17.7509H39.4849V11.1616ZM34.9236 11.1696H38.62V12.2946H36.2292V13.7571H38.5384V14.8661H36.2292V16.65H38.62V17.7589H34.9236V11.1696ZM29.3179 11.1696L31.1049 15.6054L32.9163 11.1696H34.3443L31.4476 17.9357H30.7458L27.8899 11.1696H29.3179ZM24.7566 10.9286C26.772 10.9286 28.3958 12.5357 28.3958 14.5125C28.3958 16.4973 26.7639 18.0964 24.7566 18.0964C22.7411 18.0964 21.1174 16.4893 21.1174 14.5125C21.1174 12.5277 22.7493 10.9286 24.7566 10.9286ZM20.7339 11.4188V12.9455C19.0938 11.3304 16.9151 12.5679 16.9151 14.4723C16.9151 16.4813 19.159 17.5661 20.7339 16.0152V17.542C18.3104 18.6911 15.5688 17.0839 15.5688 14.4723C15.5688 11.9652 18.2696 10.2134 20.7339 11.4188ZM12.8026 16.7464C13.7328 16.7464 14.6304 15.517 12.5333 14.7857C11.3094 14.3437 10.8851 13.8696 10.8851 12.9616C10.8851 11.0973 13.3819 10.4384 14.9405 11.8125L14.255 12.6804C13.4064 11.7482 12.2233 12.1821 12.2233 12.8813C12.2233 13.2348 12.4436 13.4357 13.2269 13.7089C14.712 14.2393 15.1526 14.7134 15.1526 15.7661C15.1526 18.1366 11.9866 18.7714 10.5342 16.6741L11.3747 15.8786C11.6766 16.4491 12.1825 16.7464 12.8026 16.7464ZM4.52049 17.7589H2.61111V11.1696H4.52049C6.65017 11.1696 8.11892 12.5357 8.11892 14.4723C8.11892 15.9589 7.04184 17.7589 4.52049 17.7589ZM10.0283 17.7589H8.72274V11.1696H10.0283V17.7589ZM44.3889 32.2232C44.3889 32.8821 43.834 33.4286 43.1649 33.4286H10.4444C25.9153 30.5679 41.6717 22.2429 44.3889 20.5714V32.2232ZM6.04635 12.825C5.62205 12.4313 5.09983 12.2946 4.25938 12.2946H3.91667V16.65H4.25938C5.09983 16.65 5.64653 16.4893 6.04635 16.1357C6.51146 15.7179 6.77257 15.1071 6.77257 14.4723C6.77257 13.8375 6.51146 13.2268 6.04635 12.825Z" fill="#1B1B1B"/>
</svg>
