<svg width="46" height="36" viewBox="0 0 46 36" fill="none" xmlns="http://www.w3.org/2000/svg">
<path d="M25.9668 10.9128C25.9668 9.59518 24.8418 9.43463 23.7801 9.43463L20.6596 9.41149V14.98H21.9685V12.9638H23.4051C24.8734 12.9638 24.5631 13.7911 24.5861 14.98H25.9107V13.8952C25.9107 13.1561 25.7915 12.6817 25.0329 12.417C25.6234 12.1755 25.9754 11.5564 25.9668 10.9128ZM23.6207 11.8211H21.9685V10.5917H23.6451C24.0517 10.5917 24.4985 10.6727 24.4985 11.1862C24.4985 11.717 24.0761 11.8211 23.6207 11.8211ZM22.2874 19.0125H18.0808L16.4041 20.8436L14.7678 19.0125H9.46062L9.452 24.581H14.6729L16.3725 22.7325L18.0003 24.581H20.5706L20.5792 22.7094C22.0877 22.7094 24.5143 23.0782 24.5143 20.8378C24.5143 19.4478 23.533 19.0125 22.2874 19.0125ZM14.002 23.408H10.7623V22.2986H13.6586V21.1661H10.7623V20.1623H14.0911L15.5191 21.7851L14.002 23.408ZM19.2545 24.0661L17.2346 21.8083L19.2545 19.6069V24.0661ZM22.2716 21.5754H20.5792V20.1609H22.2946C22.7414 20.1609 23.1092 20.346 23.1092 20.8363C23.1092 21.3498 22.7414 21.5754 22.2716 21.5754ZM19.7488 10.5917V9.41872H15.3194V14.9872H19.7488V13.8388H16.6441V12.7294H19.6611V11.5969H16.6441V10.5932L19.7488 10.5917ZM30.4607 20.5152C30.4607 19.1976 29.3358 19.0125 28.2985 19.0125H25.1536L25.1464 24.581H26.4711L26.4797 22.5488H27.8848C28.7626 22.5488 29.0657 22.7094 29.0657 23.6567L29.0585 24.581H30.3832L30.3918 23.473C30.3918 22.7571 30.2481 22.2595 29.514 21.9949C30.1289 21.7461 30.4564 21.127 30.4636 20.5167L30.4607 20.5152ZM28.1304 21.4149H26.4782V20.1609H28.1549C28.5614 20.1609 29.0082 20.2419 29.0082 20.7553C29.0082 21.3093 28.5772 21.4149 28.1304 21.4149ZM14.3382 14.9872V9.41872H12.1357L10.564 13.1952L8.83134 9.41872H6.66912V14.698L4.42645 9.41872H2.47111L0.100568 14.9872H1.52864L2.0401 13.7578H4.79424L5.30427 14.9872H8.00237V10.6322L9.91748 14.9872H11.0826L12.9978 10.6322V14.9872H14.3382ZM2.50846 12.6007L3.40209 10.3834L4.32013 12.6007H2.50846ZM40.6138 25.3678V25.0062C39.7518 25.456 40.3021 25.3678 28.106 25.3678C28.106 23.3429 28.1146 23.447 28.106 23.3429C27.971 23.3342 27.8503 23.3342 27.3561 23.3342C27.3561 24.7733 27.3474 23.8809 27.3474 25.3678H24.1867C24.1867 24.3958 24.1939 24.1384 24.1939 23.0218C23.3951 23.5034 22.375 23.5352 21.457 23.5193C21.457 24.701 21.4484 24.1861 21.4484 25.3678H17.5449C17.1383 24.9093 17.3294 25.119 16.3151 23.9691C16.0593 24.2497 15.2936 25.0857 15.0307 25.3678H8.4851V17.9508H15.1183C15.5177 18.4006 15.3424 18.1996 16.3553 19.3335C16.611 19.053 17.3294 18.256 17.6081 17.9508H22.2371C23.0201 17.9508 23.6738 18.1041 24.1767 18.4006V17.9508C28.5112 17.9508 29.3085 17.838 30.2194 18.3601V17.9508H36.4618V18.3688C37.3712 17.8149 38.0264 17.9508 41.6411 17.9508V18.3529C42.4629 17.8785 42.9657 17.9349 45.9756 17.9508V3.85745C45.9752 2.83451 45.5714 1.85358 44.8529 1.13025C44.1344 0.406916 43.16 0.00038334 42.1439 0H3.83166C2.81556 0.00038334 1.84118 0.406916 1.12269 1.13025C0.404194 1.85358 0.000380776 2.83451 0 3.85745V12.6803L1.84328 8.34841H5.01262C5.35599 9.15982 5.14048 8.64636 5.73096 10.0436V8.34841H9.40315C9.63446 8.84741 10.2896 10.2764 10.5123 10.7595C10.9749 9.6675 11.3183 8.83873 11.518 8.34841H19.7387C19.7387 8.34118 20.6568 8.34841 20.6639 8.34841C24.1522 8.36432 24.9424 8.28477 25.8044 8.77364V8.34841H28.9896V9.09618C29.5959 8.60587 30.4176 8.34841 31.4406 8.34841H33.643C33.643 8.38891 33.7939 8.373 33.8269 8.373H36.413C36.7477 9.15982 36.6213 8.85464 37.1155 10.0291V8.373H40.5722C40.963 9.01519 40.4917 8.22836 41.4658 9.85119V8.373H44.6509V15.7654H41.3308C40.8997 15.0422 41.2187 15.5889 40.2762 14.0051V15.7654H36.0624C35.5509 14.5765 36.0538 15.7408 35.5351 14.536H34.018C33.6832 15.3401 33.8427 14.954 33.508 15.7654H31.3687C30.3875 15.7654 29.5887 15.5238 28.9982 15.0509V15.7654H23.691C23.6666 14.6488 23.6824 13.7723 23.6824 13.7723C23.5388 13.7491 23.4109 13.7564 22.9009 13.7564V15.774H12.0855V14.8585C11.8858 15.3083 11.8699 15.3329 11.6789 15.774H9.32413C9.00519 15.0581 9.09282 15.2591 8.91755 14.8585V15.774H4.69511C4.35892 14.9626 4.51983 15.3488 4.18365 14.5446H2.6507C2.31595 15.3488 2.47542 14.9626 2.14067 15.774H0.0172403V32.1425C0.0176211 33.1655 0.421435 34.1464 1.13993 34.8698C1.85842 35.5931 2.8328 35.9996 3.8489 36H42.1683C43.1844 35.9996 44.1588 35.5931 44.8773 34.8698C45.5958 34.1464 45.9996 33.1655 46 32.1425V24.8789C44.9857 25.5457 43.3895 25.3692 40.6124 25.3692L40.6138 25.3678ZM43.5102 20.1855H45.9124V19.0125H43.2861C42.2646 19.0125 41.3868 19.5418 41.3868 20.6758C41.3868 23.327 44.7946 21.7041 44.7946 22.8771C44.7946 23.2865 44.4512 23.392 44.1237 23.392H41.5692L41.5606 24.581H44.1151C44.786 24.581 45.5202 24.4363 45.9109 23.8665V21.7938C45.0733 20.6844 42.7746 21.6897 42.7746 20.709C42.7746 20.2433 43.1424 20.1869 43.5088 20.1869L43.5102 20.1855ZM36.39 23.3834L36.3828 24.5723H38.953C40.134 24.5723 41.0449 24.1225 41.0449 22.8048C41.0449 20.1377 37.6212 21.9052 37.6212 20.6917C37.6212 20.2419 38.012 20.1782 38.3554 20.1782H40.7819V19.0052H38.1327C37.1112 19.0052 36.2564 19.536 36.2564 20.6685C36.2564 23.3197 39.6642 21.6723 39.6642 22.8699C39.657 23.3038 39.2892 23.3834 38.9616 23.3834H36.39ZM35.5926 20.1609V19.0125H31.1863L31.1777 24.581H35.584L35.5912 23.4325L32.5109 23.408V22.2986H35.5351V21.1661H32.5181V20.1623L35.5926 20.1609ZM31.0986 11.4755C31.0756 11.4914 30.9866 11.6519 30.9866 12.0858C30.9866 12.5675 31.0584 12.7049 31.0742 12.7208C31.09 12.728 31.1618 12.7613 31.3457 12.7613L31.929 11.4031C31.8414 11.4031 31.7609 11.3959 31.6819 11.3959C31.2351 11.3959 31.1231 11.4509 31.0986 11.4755ZM31.4348 9.41004C29.5585 9.41004 28.7209 10.3748 28.7209 12.2464C28.7209 14.0312 29.5355 14.9785 31.3544 14.9785H32.8873L33.3973 13.7491H36.1357L36.6629 14.9785H39.3524V10.8087L41.8422 14.9785H43.7257V9.43463H42.3767V13.2993L40.055 9.43463H38.035V14.6893L35.8081 9.43463H33.8283L31.952 13.8142H31.3615C30.2998 13.8142 30.0771 13.1634 30.0771 12.216C30.0771 10.3039 31.3299 10.6076 32.7192 10.6322V9.41294L31.4348 9.41004ZM34.7952 10.382L35.6889 12.5993H33.87L34.7952 10.382ZM26.7253 9.41872V14.9872H28.0744V9.41872H26.7253Z" fill="#1B1B1B"/>
</svg>
