<svg width="120" height="71" viewBox="0 0 120 71" fill="none" xmlns="http://www.w3.org/2000/svg">
<g clip-path="url(#clip0_921_77)">
<mask id="mask0_921_77" style="mask-type:luminance" maskUnits="userSpaceOnUse" x="28" y="0" width="69" height="68">
<path d="M96.1276 33.8739C96.1276 52.3567 81.0844 67.3371 62.5309 67.3371C43.9774 67.3371 28.9326 52.3552 28.9326 33.8739C28.9326 15.3926 43.9728 0.410645 62.5309 0.410645C81.089 0.410645 96.1276 15.3941 96.1276 33.8739Z" fill="white"/>
</mask>
<g mask="url(#mask0_921_77)">
<path d="M96.1272 0.410645H28.9307V67.3387H96.1272V0.410645Z" fill="url(#paint0_radial_921_77)"/>
</g>
<path d="M95.8649 27.6903C95.8217 27.4581 95.7738 27.2273 95.7244 26.9966C94.963 23.3296 93.6179 19.9194 91.8095 16.843C91.7941 16.8077 91.7802 16.7723 91.7601 16.74L91.7524 16.7446C89.8266 13.4944 87.3804 10.6226 84.5497 8.21535C84.4277 8.10921 84.3041 8.00769 84.1806 7.90463C84.1265 7.84618 84.0648 7.78927 83.9984 7.73389L83.9891 7.7462C82.6301 6.64178 81.1908 5.64042 79.6789 4.75596L79.6882 4.74366C78.8326 4.24375 77.9492 3.78537 77.0489 3.36852C76.3972 3.06088 75.7378 2.7717 75.066 2.50406C74.9764 2.45945 74.8791 2.41331 74.7726 2.37177L74.7664 2.38716C72.1488 1.37195 69.3906 0.675155 66.5475 0.335216V0.33214C66.4888 0.324449 66.4286 0.319834 66.3684 0.313681C66.2912 0.304452 66.2139 0.292147 66.1305 0.284456V0.287532C66.0441 0.279841 65.956 0.270612 65.8665 0.262921C64.4565 0.121408 63.0249 0.0706478 61.5825 0.112179C61.5825 0.112179 61.5702 0.112179 61.5609 0.112179C60.3656 0.147557 59.1595 0.246001 57.9503 0.410587V0.407511L57.8375 0.424431C57.8252 0.427507 57.8113 0.432122 57.7989 0.43366C57.4932 0.475191 57.1874 0.522875 56.8816 0.576711C56.6947 0.605937 56.5063 0.638239 56.321 0.673617C56.1357 0.707457 55.9504 0.744374 55.7651 0.784366C55.4608 0.845894 55.1581 0.912036 54.857 0.979716C54.8446 0.982792 54.8307 0.982792 54.8153 0.985869L54.7057 1.00894L54.7087 1.01356C53.5196 1.29504 52.3598 1.63498 51.2294 2.03184C51.2217 2.03491 51.2155 2.03645 51.2093 2.03953C49.8472 2.51944 48.533 3.07934 47.2667 3.71769C47.2141 3.74076 47.1663 3.76845 47.1153 3.79306V3.78844C47.0149 3.8392 46.9254 3.88689 46.8358 3.93457C46.7771 3.96534 46.7153 3.99456 46.6566 4.02686V4.02994C44.1348 5.36201 41.8183 6.99864 39.7474 8.8783L39.7381 8.86754C39.647 8.94752 39.5698 9.02751 39.4972 9.10596C38.9675 9.59818 38.4532 10.1058 37.9559 10.6303C37.2656 11.3394 36.6093 12.0839 35.9931 12.8576L36.0039 12.8653C34.9167 14.2312 33.9376 15.6771 33.0712 17.1922L33.0589 17.183C33.0126 17.2614 32.977 17.3368 32.9446 17.4122C31.0497 20.7823 29.7247 24.4863 29.0761 28.3656H29.0668C29.0606 28.404 29.0606 28.441 29.0576 28.481C28.446 32.2234 28.4584 36.1304 29.195 40.0666C29.9394 44.0443 31.3586 47.7267 33.3122 51.0231L33.3044 51.0292C33.3291 51.0646 33.3523 51.1 33.377 51.1369C35.4202 54.5517 38.0393 57.5465 41.0786 60.0169L41.0693 60.0292C41.128 60.0768 41.1928 60.1199 41.2592 60.1645C41.3056 60.2014 41.3488 60.2368 41.3936 60.2737C41.9248 60.6937 42.4669 61.0967 43.0198 61.4843C43.7595 62.0134 44.5208 62.5133 45.31 62.9779L45.3193 62.964C46.9099 63.9008 48.5809 64.7068 50.3121 65.3774L50.3059 65.3928C50.4047 65.4297 50.5082 65.4636 50.6194 65.4959C53.1181 66.4342 55.7388 67.0833 58.4367 67.4125C58.4939 67.4186 58.551 67.4294 58.6082 67.4355V67.4325C58.7471 67.4478 58.8861 67.4617 59.0251 67.4771V67.4801C59.0776 67.4863 59.1332 67.4894 59.1873 67.494C61.7787 67.7493 64.4318 67.7124 67.1081 67.3463C67.1297 67.3432 67.1483 67.3432 67.1714 67.3402V67.3371C67.6919 67.2663 68.2154 67.1817 68.7389 67.0848C69.2624 66.9864 69.7782 66.8787 70.2925 66.7572V66.7618C70.3141 66.7556 70.3342 66.748 70.3543 66.7418C72.9827 66.1235 75.4737 65.2082 77.7979 64.0377C77.8767 64.0008 77.9554 63.9638 78.0295 63.9238V63.9192C78.1253 63.87 78.2195 63.8208 78.3152 63.7746C78.36 63.7531 78.4017 63.727 78.4465 63.7039C80.8541 62.4272 83.0718 60.8767 85.0701 59.1001C85.1643 59.0247 85.257 58.9524 85.3373 58.8786L85.328 58.8678C86.6963 57.6265 87.9549 56.2791 89.0993 54.8409L89.1101 54.8501C89.6737 54.1394 90.2004 53.4057 90.6976 52.652C91.1069 52.0398 91.5022 51.4122 91.8728 50.7739C91.9238 50.7047 91.9701 50.6355 92.0087 50.5678L91.9964 50.5601C93.933 47.173 95.2904 43.446 95.9607 39.5328C95.9746 39.4882 95.9838 39.4436 95.9931 39.399H95.9838C96.6155 35.6197 96.6077 31.6727 95.8649 27.6949M81.6355 6.13264C81.6633 6.15264 81.6896 6.1711 81.7158 6.18802C82.5374 6.75253 83.3343 7.35396 84.1003 7.98616C84.2454 8.14305 84.3335 8.30764 84.3674 8.48299C81.7838 6.38644 78.8805 4.6729 75.764 3.40236C75.764 3.3516 75.764 3.2993 75.7563 3.247C75.7301 3.10088 75.6559 2.96859 75.5386 2.844C76.0312 3.03935 76.5161 3.25008 76.9979 3.47158C78.2813 4.07762 79.5245 4.76673 80.7182 5.5266C81.0271 5.72348 81.3344 5.92345 81.6355 6.1311V6.13264ZM75.6436 3.26854C75.6498 3.2993 75.6482 3.32853 75.6482 3.35929C73.2344 2.38562 70.6878 1.68267 68.0625 1.27966C68.0702 1.22429 68.0748 1.16737 68.0656 1.11508C68.0501 1.03817 68.0162 0.965872 67.9637 0.896654C70.2431 1.17968 72.4823 1.71651 74.6521 2.5056C74.8328 2.57174 75.015 2.64096 75.1973 2.71171C75.4552 2.8763 75.6081 3.06242 75.6467 3.26854H75.6436ZM95.0789 29.65C95.7584 33.2924 95.8032 36.9579 95.2487 40.4942C94.4936 41.3187 93.1068 42.2139 91.2072 43.1353C91.5393 39.8328 91.3864 36.3765 90.7285 32.8617C90.693 32.6771 90.6575 32.4941 90.6173 32.311C92.6636 31.3327 94.1801 30.3775 95.0464 29.4946C95.0557 29.5485 95.0681 29.6008 95.0789 29.6515V29.65ZM30.6034 41.4494C31.7323 41.9632 33.4898 42.3108 35.7522 42.4908C35.7846 42.6738 35.8155 42.8599 35.851 43.0445C36.5074 46.5593 37.6146 49.8402 39.1173 52.7997C37.0124 52.6213 35.3939 52.2844 34.3916 51.786C32.5971 48.685 31.3123 45.2487 30.6328 41.6109C30.6204 41.5586 30.6127 41.5032 30.6034 41.4509V41.4494ZM39.2254 10.0258C39.1868 9.81967 39.264 9.59048 39.4462 9.34591C39.5898 9.21517 39.7319 9.0875 39.8802 8.95983C41.616 7.44625 43.514 6.14187 45.537 5.05745C45.5138 5.14051 45.5061 5.2205 45.52 5.29741C45.5293 5.35124 45.554 5.40046 45.5818 5.44969C43.2777 6.76791 41.1573 8.33686 39.2563 10.1119C39.2454 10.0827 39.2331 10.0566 39.2269 10.0258H39.2254ZM52.2193 2.42561C52.2425 2.45176 52.2749 2.47945 52.315 2.50252C49.9692 3.24393 47.7485 4.21914 45.6775 5.39739C45.6544 5.35893 45.6389 5.32048 45.6297 5.27895C45.6127 5.18666 45.6343 5.08514 45.6945 4.979C47.7516 3.89458 49.9383 3.03935 52.2193 2.42715V2.42561ZM52.4108 2.07029C53.3312 1.87802 54.2671 1.73497 55.2245 1.6519C54.2269 1.8211 53.2416 2.03799 52.2749 2.29487C52.2656 2.23026 52.3135 2.15335 52.4108 2.07029ZM53.203 1.64729C53.935 1.53039 54.6887 1.48116 55.4608 1.50578C55.5056 1.50578 55.5519 1.51193 55.5952 1.51347C54.5991 1.58422 53.6169 1.71497 52.661 1.90417C52.8061 1.82264 52.9884 1.73497 53.203 1.64729ZM60.1741 0.510569C59.212 0.676693 58.2499 0.907421 57.2939 1.1966C57.3341 1.17968 57.3758 1.15968 57.419 1.14276C58.1294 0.841279 58.8506 0.616704 59.5749 0.462885C59.8096 0.469038 60.0104 0.48442 60.1741 0.509031V0.510569ZM60.676 0.736683C59.6815 0.842817 58.6838 0.99356 57.6908 1.19506C58.6143 0.928956 59.5394 0.725915 60.4675 0.576711C60.5926 0.618242 60.6621 0.673617 60.6775 0.736683H60.676ZM67.7845 0.879734C67.8787 0.958181 67.9359 1.04432 67.9544 1.13661C67.9621 1.1766 67.9621 1.22121 67.9544 1.26428C65.5931 0.90896 63.1716 0.795134 60.7146 0.944338C60.7409 0.908959 60.764 0.873581 60.7748 0.838203C63.1238 0.592093 65.4742 0.604399 67.7845 0.879734ZM90.6189 32.8848C91.2798 36.4134 91.4296 39.882 91.0883 43.1952C89.1533 44.1228 86.6994 45.0764 83.8516 46.0117C83.9119 42.6277 83.5721 39.016 82.8293 35.3397C85.8407 34.3537 88.4445 33.3462 90.5154 32.3633C90.5525 32.5371 90.5864 32.7094 90.6189 32.8848ZM67.2672 59.2139C65.3646 59.5662 63.4913 59.8723 61.6752 60.1307C60.7331 57.7849 59.8158 54.9439 58.9618 51.7491C61.1331 51.4353 63.3755 51.0692 65.6642 50.6431C67.9498 50.2186 70.1767 49.7602 72.3171 49.2711C72.6754 52.5597 72.8437 55.5377 72.8159 58.0649C71.0261 58.474 69.1698 58.8601 67.2672 59.2139ZM72.8128 58.1849C72.7819 60.3599 72.6013 62.1949 72.2677 63.6008C70.9674 63.8992 69.6238 64.1776 68.2447 64.4361C66.8687 64.6914 65.5066 64.9129 64.1878 65.1006C63.3678 63.91 62.5354 62.2611 61.7215 60.243C63.5253 59.9845 65.3877 59.6785 67.2888 59.3247C69.1883 58.9724 71.0369 58.591 72.8128 58.1864V58.1849ZM35.8696 42.5015C38.1582 42.6753 40.9504 42.6846 44.1178 42.5231C44.754 46.2193 45.7409 49.711 47.0196 52.8443C44.0267 52.995 41.3936 52.9858 39.2516 52.8135C37.7366 49.8464 36.6247 46.5546 35.9653 43.026C35.9313 42.8522 35.9004 42.6769 35.8711 42.5015H35.8696ZM72.3032 49.1619C70.1628 49.6495 67.9328 50.1094 65.6441 50.5339C63.3554 50.9585 61.1084 51.3276 58.934 51.6414C58.0924 48.4789 57.3156 44.9734 56.6438 41.251C58.9247 40.9218 61.2829 40.5342 63.6905 40.0866C66.0981 39.6405 68.4378 39.1575 70.6848 38.6453C71.4029 42.3585 71.9465 45.9086 72.3047 49.1619H72.3032ZM63.6689 39.9774C61.2613 40.4234 58.9047 40.8126 56.6237 41.1418C56.2731 39.1929 55.9519 37.1886 55.6631 35.1398C55.413 33.3678 55.1998 31.6189 55.0161 29.9084C57.1426 29.6008 59.3402 29.2393 61.5825 28.8224C63.8249 28.4071 66.0039 27.9549 68.1011 27.4811C68.5505 29.1439 68.9798 30.8498 69.3891 32.5956C69.8601 34.6091 70.2863 36.5964 70.6631 38.5392C68.4161 39.0483 66.075 39.5313 63.6674 39.9789L63.6689 39.9774ZM59.5517 17.9567C57.7449 18.292 55.9766 18.5858 54.2624 18.8365C54.1868 15.8371 54.2393 13.0929 54.4091 10.6934C55.5952 10.5165 56.8229 10.3134 58.08 10.0796C59.3355 9.84582 60.5525 9.59664 61.7231 9.33668C62.7516 11.5132 63.7909 14.0558 64.804 16.8799C63.116 17.263 61.3601 17.6244 59.5517 17.9582V17.9567ZM64.841 16.983C65.9699 20.1348 67.0649 23.6357 68.0733 27.3719C65.9792 27.8457 63.8017 28.2964 61.5624 28.7117C59.3232 29.127 57.1287 29.4885 55.0068 29.7976C54.5976 25.9476 54.352 22.2898 54.264 18.9457C55.9844 18.695 57.7603 18.4028 59.5718 18.0659C61.3833 17.7306 63.1454 17.3676 64.841 16.983ZM58.0568 9.96888C56.8152 10.1996 55.5983 10.4026 54.4184 10.5765C54.5543 8.7291 54.7628 7.08939 55.0423 5.69733C55.7388 5.59274 56.4569 5.47276 57.1905 5.3374C57.9256 5.2005 58.639 5.05437 59.3278 4.90209C60.0892 6.10188 60.8783 7.55546 61.6736 9.23055C60.5077 9.4905 59.3 9.73969 58.0568 9.96888ZM57.1704 5.22665C56.4554 5.35893 55.7496 5.47584 55.0655 5.57736C55.3203 4.32681 55.6338 3.28084 56.0044 2.47176C56.2145 2.43792 56.426 2.401 56.6361 2.36255C56.8445 2.32409 57.0546 2.28256 57.2615 2.23641C57.9009 2.85938 58.5711 3.72384 59.2629 4.79903C58.5834 4.94978 57.8854 5.09437 57.1704 5.22665ZM56.3303 1.66575C56.199 1.87494 56.0739 2.10721 55.955 2.36408C55.6091 2.41792 55.2801 2.46253 54.9713 2.49483C55.413 2.19027 55.867 1.9134 56.3303 1.66575ZM54.7458 2.51636C54.4972 2.53944 54.264 2.55482 54.0462 2.56405C54.6362 2.29025 55.2354 2.03645 55.8469 1.80572C55.4716 2.02261 55.1041 2.25949 54.7458 2.51636ZM56.4909 1.58884C56.7117 1.74112 56.9372 1.9257 57.1673 2.14259C56.9882 2.1795 56.8059 2.21796 56.6144 2.2518C56.426 2.28871 56.2423 2.31948 56.0616 2.3487C56.1975 2.06414 56.3411 1.81034 56.4909 1.59038V1.58884ZM56.6685 1.60268C57.1889 1.66729 57.7124 1.76419 58.2344 1.88878C57.9333 1.96877 57.6121 2.04722 57.2692 2.11951C57.0669 1.92416 56.8662 1.75035 56.6685 1.60268ZM57.1704 1.56269C57.8236 1.55654 58.4723 1.57961 59.124 1.62422C58.917 1.69343 58.6946 1.76111 58.4553 1.83033C58.0275 1.71958 57.5997 1.63191 57.1704 1.56269ZM55.3898 1.86725C54.84 2.08413 54.2964 2.31948 53.7621 2.57635C53.5428 2.58097 53.3482 2.57789 53.1737 2.56712C53.8995 2.31025 54.6377 2.07644 55.3898 1.86879V1.86725ZM52.9065 2.54559C52.8216 2.53636 52.7459 2.52406 52.6795 2.51021C53.2864 2.32563 53.9026 2.15489 54.5281 2.00261C53.9798 2.17027 53.4409 2.35178 52.9065 2.54559ZM53.5258 2.69172C51.6695 3.60386 49.9183 4.74058 48.289 6.06804C47.5323 6.03727 46.9084 5.96036 46.4559 5.83885C48.4697 4.56523 50.6302 3.49465 52.9158 2.66095C53.0949 2.68095 53.2988 2.69018 53.5242 2.69172H53.5258ZM53.7822 2.68864C54.0262 2.68249 54.2902 2.66711 54.5636 2.64557C53.3158 3.55618 52.1513 4.68982 51.0796 6.01266C50.102 6.07573 49.2171 6.0988 48.4573 6.07419C50.1113 4.73751 51.8934 3.59771 53.7806 2.68864H53.7822ZM54.7844 2.62404C55.1458 2.5902 55.5211 2.54251 55.901 2.4856C55.538 3.30545 55.2292 4.34834 54.9744 5.5912C53.6401 5.78655 52.3753 5.92499 51.2294 6.00343C52.3228 4.66983 53.5088 3.53157 54.7844 2.62404ZM57.365 2.21334C57.7402 2.13028 58.1093 2.04106 58.4584 1.94416C59.9733 2.33178 61.4945 2.96551 62.9956 3.82075C61.8991 4.15761 60.6683 4.48524 59.3525 4.78057C58.6684 3.71307 58.0028 2.85015 57.365 2.21488V2.21334ZM58.6699 1.88417C58.934 1.80726 59.1857 1.72574 59.4158 1.64575C61.5068 1.81495 63.5809 2.24103 65.607 2.89322C64.9074 3.18855 64.0735 3.48542 63.1392 3.77614C61.6613 2.92552 60.1648 2.28564 58.6699 1.88263V1.88417ZM59.6567 1.555C59.8668 1.47347 60.0536 1.39195 60.2143 1.30735C62.6466 1.26736 65.0495 1.48886 67.3876 1.95493C67.0108 2.23334 66.4564 2.52867 65.7615 2.82708C63.7646 2.17335 61.72 1.74266 59.6583 1.555H59.6567ZM59.3958 1.53039C58.8027 1.4827 58.2128 1.45963 57.6198 1.45348C58.395 1.37811 59.1687 1.33196 59.9394 1.31043C59.7803 1.38272 59.5981 1.45655 59.3942 1.53039H59.3958ZM58.4738 1.27043C59.1116 1.18891 59.7479 1.12584 60.381 1.08124C60.3224 1.11969 60.2544 1.15661 60.1803 1.19506C59.612 1.20583 59.0437 1.23198 58.4738 1.27043ZM52.4741 2.57174C52.5359 2.59481 52.6054 2.61019 52.6841 2.62558C50.4325 3.46235 48.3044 4.52985 46.3138 5.79578C46.0528 5.71118 45.8598 5.60658 45.747 5.4866C47.8442 4.29605 50.0943 3.31314 52.4741 2.5702V2.57174ZM46.2026 5.86961C43.9881 7.2909 41.9526 8.95367 40.1273 10.818C39.7149 10.6549 39.4323 10.458 39.3041 10.2242C41.2114 8.43992 43.3394 6.86482 45.6528 5.54198C45.7671 5.66811 45.954 5.77732 46.2042 5.86961H46.2026ZM46.337 5.91576C46.7833 6.05266 47.3995 6.13879 48.1531 6.18032C46.3385 7.67852 44.6768 9.41513 43.1927 11.3394C41.9295 11.2686 40.921 11.1102 40.2369 10.8641C42.0685 8.99982 44.1131 7.33396 46.337 5.9173V5.91576ZM48.3152 6.18802C49.0781 6.22186 49.9769 6.20494 50.9746 6.14187C49.7808 7.63699 48.706 9.36899 47.7639 11.2902C46.0806 11.3902 44.5842 11.4102 43.3271 11.3456C44.8189 9.41821 46.4899 7.6816 48.3152 6.18648V6.18802ZM51.1244 6.13264C52.2826 6.05573 53.5737 5.91576 54.9497 5.71118C54.6701 7.10785 54.4601 8.74756 54.3227 10.5903C52.0031 10.9318 49.8271 11.161 47.889 11.2825C48.8372 9.35822 49.9229 7.62622 51.1244 6.13418V6.13264ZM54.3149 10.7072C54.1404 13.1099 54.0864 15.854 54.1574 18.8504C50.7939 19.3395 47.6481 19.6671 44.8606 19.8287C45.5988 16.763 46.6011 13.9205 47.8303 11.4055C49.7762 11.2856 51.9645 11.0533 54.3149 10.7087V10.7072ZM54.1621 18.9627C54.247 22.3082 54.4895 25.9676 54.8972 29.8146C50.7337 30.416 46.842 30.8144 43.4105 31.002C43.5201 27.1304 44.0112 23.3896 44.8374 19.9271C47.6311 19.7702 50.7877 19.4487 54.1605 18.9611L54.1621 18.9627ZM54.9095 29.9253C55.0902 31.6358 55.3048 33.3832 55.555 35.1567C55.8407 37.2025 56.1635 39.2098 56.5141 41.1587C52.0479 41.8016 47.8813 42.2231 44.2135 42.42C44.1734 42.1677 44.1286 41.9201 44.0869 41.6663C43.5309 38.1146 43.3178 34.5583 43.4074 31.1036C46.8466 30.919 50.7414 30.5252 54.908 29.9253H54.9095ZM69.5018 32.5679C69.0926 30.8251 68.6601 29.1178 68.2138 27.4565C72.3171 26.5228 76.093 25.4923 79.3669 24.4309C80.7012 27.6211 81.7869 31.0159 82.5513 34.5291C82.6054 34.7783 82.6532 35.0275 82.7042 35.2767C79.2156 36.4072 75.1726 37.5101 70.7759 38.5115C70.3991 36.5672 69.9713 34.5799 69.5018 32.5664V32.5679ZM68.186 27.3504C67.1761 23.6126 66.078 20.1148 64.9491 16.963C68.2694 16.2078 71.3287 15.3771 73.9942 14.5204C76.0158 17.4537 77.8288 20.77 79.3283 24.3402C76.0574 25.3938 72.2847 26.4198 68.1845 27.3519L68.186 27.3504ZM64.9105 16.8569C63.8959 14.0358 62.852 11.4948 61.8188 9.31669C64.1368 8.79524 66.2618 8.22611 68.1227 7.63853C70.1798 9.54588 72.141 11.8393 73.9386 14.4327C71.2793 15.2833 68.2247 16.1062 64.9105 16.8569ZM61.7694 9.21055C60.9756 7.54008 60.1865 6.0865 59.4205 4.8821C60.781 4.57907 62.035 4.24682 63.1438 3.90535C64.8055 4.86364 66.441 6.09111 68.0239 7.54777C66.1692 8.12921 64.0596 8.69372 61.7694 9.21055ZM63.2859 3.86074C64.2403 3.56079 65.082 3.25469 65.7831 2.95013C68.027 3.68846 70.2122 4.70828 72.3001 5.97113C71.1527 6.48335 69.7489 7.00325 68.1413 7.51086C66.5691 6.05727 64.9383 4.82672 63.2859 3.86074ZM65.9329 2.88399C66.6201 2.57789 67.1622 2.27333 67.5297 1.98723C70.1164 2.51175 72.626 3.33006 75.0104 4.41449C74.4591 4.88825 73.5757 5.39893 72.4221 5.92037C70.345 4.65598 68.166 3.63155 65.9329 2.88553V2.88399ZM67.6378 1.89494C67.8417 1.71958 67.9745 1.55038 68.0347 1.39195C70.6724 1.79649 73.2267 2.50252 75.6482 3.48388C75.6127 3.74845 75.4212 4.03302 75.0969 4.3345C72.7171 3.25162 70.2168 2.42715 67.6378 1.89648V1.89494ZM67.5065 1.86725C65.1962 1.40118 62.8211 1.16891 60.4196 1.19506C60.4876 1.15353 60.5463 1.112 60.5957 1.06893C63.0821 0.908959 65.5375 1.01663 67.925 1.37503C67.8648 1.52885 67.7212 1.69497 67.505 1.86725H67.5065ZM39.2238 10.3011C39.3674 10.5365 39.647 10.7349 40.05 10.901C37.6857 13.3298 35.6734 16.0893 34.0843 19.0796C33.5206 18.8319 33.1562 18.5304 33.0218 18.1751C34.6743 15.271 36.7653 12.6161 39.2238 10.3011ZM40.1628 10.9456C40.85 11.201 41.8507 11.3702 43.1109 11.4486C41.1836 13.9712 39.5636 16.8107 38.2957 19.8671C36.5074 19.7487 35.1036 19.501 34.1878 19.1242C35.7784 16.1339 37.7922 13.3713 40.1628 10.9441V10.9456ZM43.2452 11.4563C44.5054 11.5286 46.0096 11.5148 47.7068 11.4163C46.4821 13.9359 45.483 16.7769 44.7479 19.8379C42.3295 19.9748 40.1859 19.9871 38.4131 19.8763C39.684 16.8169 41.3133 13.9774 43.2452 11.4563ZM44.7262 19.9394C43.9016 23.4019 43.4089 27.1412 43.3008 31.0128C40.3249 31.1743 37.7011 31.1805 35.5437 31.0282C35.9792 27.1689 36.949 23.4265 38.3791 19.9609C40.1597 20.0778 42.3047 20.0717 44.7262 19.9394ZM43.2993 31.1128C43.2082 34.5706 43.4228 38.1315 43.9788 41.6847C44.0174 41.9339 44.0637 42.1785 44.1039 42.4277C40.9318 42.5923 38.1397 42.5892 35.8587 42.4185C35.2117 38.6314 35.1283 34.8183 35.5344 31.1143C37.698 31.2697 40.328 31.2666 43.2993 31.1143V31.1128ZM44.2352 42.5184C47.9045 42.3262 52.071 41.9109 56.5357 41.2679C57.2075 44.9918 57.9858 48.4974 58.8274 51.6599C54.5867 52.2675 50.624 52.6628 47.14 52.8412C45.8598 49.7079 44.8699 46.2178 44.2352 42.5184ZM58.8552 51.7676C59.7093 54.9608 60.6281 57.8003 61.5686 60.1507C58.0615 60.649 54.7659 60.969 51.8749 61.1105C51.7359 60.9367 51.6 60.7629 51.461 60.5829C49.8163 58.4264 48.3755 55.8376 47.1833 52.9427C50.6688 52.7674 54.6269 52.3721 58.8568 51.7676H58.8552ZM72.4267 49.2495C76.5918 48.2974 80.4263 47.2438 83.7405 46.1593C83.674 49.288 83.2679 52.2198 82.5127 54.8193C82.4494 55.0362 82.383 55.25 82.3181 55.4592C79.5708 56.3667 76.3787 57.2481 72.9271 58.0418C72.9534 55.5115 72.7835 52.532 72.4267 49.2495ZM72.4128 49.1388C72.0561 45.8871 71.5141 42.3354 70.7959 38.6222C75.1926 37.6193 79.231 36.5149 82.7243 35.3782C83.4671 39.0575 83.8053 42.6676 83.7435 46.0501C80.4279 47.1315 76.5887 48.1867 72.4128 49.1388ZM82.8123 35.2444C82.7614 34.9982 82.715 34.7537 82.661 34.5076C81.895 30.9913 80.8078 27.5934 79.4735 24.3986C82.3011 23.4788 84.7535 22.5359 86.7164 21.616C88.4367 24.9247 89.7355 28.5117 90.5 32.2772C88.4352 33.257 85.8299 34.263 82.8108 35.2444H82.8123ZM79.4333 24.3079C77.9338 20.7362 76.1239 17.4199 74.1023 14.485C76.408 13.742 78.4125 12.9791 80.031 12.23C82.6193 14.9511 84.8755 18.0936 86.6762 21.5407C84.718 22.4543 82.2672 23.3896 79.4333 24.3079ZM74.0437 14.4004C72.2507 11.807 70.2925 9.51665 68.2385 7.60315C69.857 7.08939 71.2654 6.5618 72.4159 6.04343C75.1309 7.69852 77.6774 9.76738 79.9661 12.1639C78.3523 12.9053 76.3478 13.659 74.0437 14.4004ZM72.5379 5.98959C73.6838 5.46353 74.5595 4.9467 75.1077 4.46217C78.1963 5.8773 81.0734 7.73082 83.6401 9.95042C82.9204 10.6288 81.6989 11.364 80.0742 12.1162C77.7886 9.71969 75.2482 7.65083 72.5395 5.99113L72.5379 5.98959ZM75.1957 4.38065C75.5123 4.08224 75.6992 3.79306 75.7501 3.52388C78.882 4.80211 81.7931 6.53103 84.3814 8.64604C84.3844 9.02597 84.1559 9.43513 83.7188 9.87197C81.1537 7.65391 78.2782 5.79732 75.1957 4.38065ZM60.554 0.958181C59.8992 1.00279 59.2429 1.06585 58.5865 1.14738C59.2707 1.02894 59.9579 0.932032 60.6451 0.856661C60.6235 0.888963 60.5942 0.924341 60.554 0.958181ZM57.3758 1.04278C57.1287 1.14738 56.8847 1.2612 56.6422 1.38118C56.9635 0.96741 57.3171 0.695152 57.7016 0.579788C58.2144 0.51826 58.6807 0.481344 59.0807 0.469038C58.5078 0.615166 57.9379 0.804363 57.3773 1.04278H57.3758ZM53.6694 1.47347C54.0493 1.34119 54.4941 1.20737 54.996 1.08277C55.396 1.05201 55.8222 1.17968 56.2731 1.4504C56.0029 1.42579 55.7342 1.40579 55.4655 1.39656C54.857 1.37657 54.2578 1.40426 53.6694 1.47347ZM54.3752 1.92724C53.7312 2.08721 53.098 2.26256 52.4726 2.45791C52.4201 2.43792 52.3815 2.41792 52.349 2.39177C53.0177 2.21488 53.6941 2.06106 54.3752 1.9257V1.92724ZM32.9523 18.2951C33.1207 18.6289 33.4898 18.915 34.0395 19.1534C32.2558 22.5328 31.0049 26.1998 30.3888 30.0084C29.7293 29.6946 29.3232 29.3146 29.2012 28.867C29.8282 25.1339 31.113 21.5622 32.9508 18.2951H32.9523ZM34.1446 19.1965C35.0773 19.5749 36.4796 19.8256 38.2617 19.9486C36.8348 23.4157 35.8665 27.1581 35.4325 31.0159C33.2566 30.8575 31.5717 30.5375 30.4969 30.0576C31.1084 26.246 32.3593 22.5774 34.1461 19.1965H34.1446ZM35.4202 31.1005C35.0125 34.806 35.0959 38.6191 35.7398 42.4046C33.4527 42.2262 31.6891 41.8739 30.5895 41.3494C29.9131 37.5732 29.9054 33.7954 30.483 30.1453C31.5779 30.6206 33.2627 30.9405 35.4202 31.102V31.1005ZM39.1713 52.8997C40.5164 55.5253 42.1719 57.8972 44.1178 59.9461C44.4792 60.326 44.8498 60.6875 45.2235 61.0413C43.5526 60.8829 42.2785 60.5983 41.5094 60.183C38.7034 57.8788 36.3313 55.0854 34.4843 51.9414C35.5221 52.4105 37.122 52.7305 39.1713 52.9012V52.8997ZM44.1981 59.8676C42.2754 57.8434 40.6369 55.5023 39.301 52.9089C41.4492 53.0812 44.0792 53.0904 47.0613 52.9443C48.2612 55.8638 49.7098 58.4725 51.3684 60.646C51.4888 60.8059 51.6108 60.9598 51.7313 61.112C49.2897 61.2259 47.1416 61.2089 45.4027 61.0567C44.995 60.6767 44.5903 60.283 44.1965 59.8692L44.1981 59.8676ZM51.8363 61.2366C53.4131 63.1855 55.1381 64.716 56.9387 65.7927C55.2369 65.865 53.7435 65.842 52.5421 65.7235C50.0387 64.6699 47.6867 63.1486 45.5571 61.1951C47.2945 61.3412 49.421 61.3535 51.8378 61.2351L51.8363 61.2366ZM51.9737 61.2289C54.8431 61.0828 58.1093 60.7598 61.6119 60.2568C62.4211 62.2657 63.2504 63.9131 64.0673 65.1129C61.5624 65.4636 59.2074 65.6897 57.1426 65.7835C55.3203 64.7206 53.5752 63.1886 51.9753 61.2274L51.9737 61.2289ZM64.1399 65.219C64.6387 65.9358 65.1329 66.4849 65.6163 66.8449C65.7028 66.911 65.7908 66.9664 65.8757 67.0202C64.3376 67.2325 62.8967 67.3663 61.6335 67.414C60.1803 67.1971 58.7394 66.6849 57.3434 65.8989C59.368 65.7989 61.6752 65.5712 64.1384 65.219H64.1399ZM65.6827 66.7572C65.2163 66.4096 64.7407 65.885 64.2604 65.2036C65.5591 65.016 66.8996 64.7975 68.2648 64.5407C69.6315 64.2884 70.9612 64.0131 72.2383 63.7208C72.0376 64.5299 71.7828 65.1882 71.4739 65.6805C71.389 65.8112 71.3056 65.9312 71.2145 66.0373C70.3867 66.2265 69.5281 66.408 68.6447 66.5695C67.7629 66.7326 66.8981 66.8756 66.0533 66.9925C65.9313 66.9248 65.8078 66.8479 65.6827 66.7556V66.7572ZM71.5681 65.7404C71.8893 65.2313 72.1519 64.5407 72.3588 63.6947C74.7849 63.1378 77.0165 62.5241 78.9438 61.8934C77.923 63.1286 76.7647 64.1207 75.486 64.8452C74.2938 65.2513 72.9009 65.6435 71.389 65.9989C71.4507 65.9189 71.511 65.8343 71.5681 65.742V65.7404ZM72.3881 63.5701C72.7155 62.158 72.8916 60.326 72.9209 58.1587C76.3694 57.3712 79.5353 56.5036 82.2641 55.6115C81.4796 58.0141 80.4047 60.0692 79.0874 61.715C77.1292 62.3672 74.8498 63.0009 72.3866 63.5701H72.3881ZM82.3969 55.5669C84.6918 54.8086 86.6716 54.0364 88.2391 53.2781C86.9573 55.8637 85.3141 58.1249 83.3575 60.0061C82.2795 60.5475 80.8958 61.1044 79.282 61.6489C80.5715 59.9984 81.6263 57.9511 82.3969 55.5669ZM82.4463 55.4131C82.505 55.2254 82.5637 55.0377 82.6193 54.8485C83.3806 52.2275 83.7883 49.2711 83.8532 46.1193C86.6901 45.1887 89.1379 44.2351 91.0806 43.3045C90.7733 46.2009 90.0892 48.9758 89.0282 51.5538C88.8105 52.0798 88.5742 52.5905 88.3302 53.095C86.7642 53.8595 84.7659 54.6455 82.4463 55.4161V55.4131ZM89.1301 51.5937C90.2034 48.9865 90.8938 46.1793 91.1995 43.246C93.0481 42.3508 94.4256 41.4802 95.224 40.6711C94.6387 44.2674 93.4326 47.7221 91.6474 50.88C91.0806 51.5461 89.9934 52.2659 88.4954 53.0104C88.7178 52.5474 88.9325 52.0767 89.1317 51.5937H89.1301ZM90.605 32.2264C89.8374 28.4625 88.5356 24.8739 86.8167 21.5653C88.7703 20.6393 90.2282 19.7379 91.0775 18.9011C92.9353 22.1006 94.2943 25.6292 95.0294 29.3931C94.1909 30.2791 92.6744 31.2405 90.6034 32.228L90.605 32.2264ZM86.7766 21.4884C84.9775 18.0428 82.7212 14.9003 80.136 12.1777C81.7514 11.4225 82.9698 10.6857 83.7034 9.99964C86.5913 12.51 89.0838 15.4864 91.0343 18.8227C90.205 19.6579 88.7487 20.5608 86.7766 21.4884ZM83.7852 9.92273C84.2099 9.50281 84.4555 9.10288 84.4894 8.73218C87.385 11.1179 89.8745 13.9897 91.8111 17.2507C91.8574 17.709 91.6165 18.2105 91.113 18.7412C89.1626 15.4079 86.67 12.4331 83.7837 9.92273H83.7852ZM84.4941 8.58759C84.491 8.54759 84.4879 8.50452 84.4802 8.46299C84.4647 8.38762 84.44 8.31533 84.4076 8.2415C87.0422 10.4688 89.3448 13.0975 91.2057 16.0632C89.3602 13.2298 87.0885 10.7149 84.4941 8.58759ZM67.8339 0.765908C67.7428 0.69669 67.627 0.633624 67.4896 0.576711C68.9443 0.793595 70.3743 1.10431 71.775 1.50424C70.4778 1.17353 69.1621 0.927418 67.8339 0.767446V0.765908ZM67.5699 0.738221C65.3321 0.489035 63.062 0.482882 60.7887 0.718224V0.71361C60.7779 0.64593 60.7316 0.589017 60.6575 0.542871C62.3917 0.281379 64.1276 0.224466 65.8557 0.375209C66.041 0.392129 66.2248 0.412125 66.4116 0.43366C66.9166 0.502878 67.3089 0.607475 67.5714 0.738221H67.5699ZM60.4691 0.456733C60.3502 0.41674 60.2019 0.390591 60.0289 0.372132C60.5386 0.287532 61.0497 0.236772 61.5594 0.224466C61.9578 0.213699 62.3531 0.210623 62.7516 0.213699C61.9918 0.25523 61.2304 0.338292 60.4706 0.458271L60.4691 0.456733ZM59.5826 0.342907H59.5564C59.5749 0.33983 59.595 0.338292 59.6151 0.336754C59.6042 0.336754 59.5934 0.33983 59.5826 0.342907ZM57.3078 0.624395C57.0067 0.799748 56.7256 1.0797 56.4662 1.45194C56.0894 1.19814 55.7264 1.03663 55.3821 0.981254C55.5195 0.948952 55.6616 0.918189 55.8083 0.887425C55.9859 0.852047 56.162 0.81513 56.3395 0.782828C56.5202 0.74745 56.6994 0.719763 56.877 0.688999C57.0237 0.664388 57.1673 0.642853 57.3078 0.624395ZM53.1567 1.53654C53.1459 1.53654 53.1351 1.54115 53.1243 1.54269C53.1443 1.53654 53.1644 1.53193 53.183 1.52577C53.1752 1.53039 53.166 1.53346 53.1567 1.53654ZM52.749 1.72266C52.5946 1.80418 52.4664 1.88263 52.3706 1.95954C51.617 2.12105 50.8788 2.31486 50.1514 2.5502C50.5221 2.40408 50.8927 2.26564 51.268 2.13336C51.7483 1.96262 52.2425 1.82572 52.7475 1.72266H52.749ZM52.2255 2.10721C52.173 2.17796 52.1529 2.24718 52.1652 2.31332C52.1652 2.31332 52.1652 2.3164 52.1652 2.31794C49.9584 2.91168 47.8442 3.73461 45.8474 4.76673C46.0436 4.55292 46.3694 4.31604 46.8142 4.06993C46.981 3.98226 47.1477 3.89612 47.3176 3.81152C48.8743 3.05319 50.5144 2.48406 52.2239 2.10567L52.2255 2.10721ZM45.6142 4.88825C44.4328 5.51429 43.2962 6.2157 42.2059 6.98633C43.3657 6.11572 44.5857 5.31433 45.8613 4.58984C45.7532 4.69136 45.6714 4.79288 45.6142 4.88825ZM39.1729 9.58895C39.1095 9.74738 39.0895 9.89812 39.1157 10.0412C39.125 10.0935 39.1451 10.1412 39.1651 10.1904C36.7158 12.4915 34.6279 15.131 32.9755 18.0136C32.9415 17.8382 32.9662 17.6506 33.045 17.4537C34.4225 15.0034 36.1043 12.7284 38.0471 10.6872C38.4131 10.3104 38.7899 9.94427 39.1729 9.58741V9.58895ZM32.8967 18.1566C31.2459 21.07 30.0367 24.2279 29.3386 27.5288C30.0042 24.1002 31.1995 20.8223 32.8535 17.8029C32.8473 17.8813 32.8535 17.9613 32.8659 18.0351C32.8736 18.0767 32.8828 18.1167 32.8967 18.1566ZM29.1579 39.1975C28.6097 35.7673 28.636 32.3633 29.1641 29.0855C29.351 29.4746 29.7633 29.8069 30.3749 30.0899C29.7973 33.7339 29.7988 37.5086 30.4629 41.2817C29.7942 40.9372 29.3942 40.5234 29.3031 40.0404C29.2506 39.7589 29.2027 39.479 29.1564 39.1975H29.1579ZM30.4814 41.3848C30.4953 41.4663 30.5077 41.5448 30.5231 41.6248C31.1933 45.2195 32.4551 48.6097 34.2094 51.683C33.8897 51.5015 33.6426 51.3 33.4774 51.0785C31.5779 47.9067 30.1818 44.3689 29.4066 40.5542C29.6228 40.868 29.9841 41.1448 30.4799 41.3848H30.4814ZM34.3036 51.8475C35.573 54.0348 37.0957 56.056 38.8424 57.8665C36.8965 55.9683 35.1746 53.8287 33.7276 51.4861C33.8882 51.6153 34.0797 51.7353 34.3036 51.846V51.8475ZM41.8708 60.4691C42.6939 60.8059 43.8861 61.0413 45.3749 61.1751C47.4489 63.0963 49.7329 64.6083 52.1668 65.6774C51.5753 65.6051 51.0688 65.5066 50.6534 65.382C47.9678 64.373 45.4289 63.0271 43.0924 61.3889C42.6754 61.0905 42.2692 60.7844 41.8692 60.4675L41.8708 60.4691ZM52.5343 65.8358C53.2478 66.1358 53.9752 66.3988 54.7134 66.6218C53.6432 66.368 52.5884 66.0619 51.5552 65.7051C51.8564 65.7574 52.1822 65.802 52.5343 65.8358ZM52.9112 65.8712C54.0926 65.9666 55.5211 65.9773 57.1333 65.905C58.4167 66.648 59.7401 67.1587 61.076 67.4263C60.3857 67.4386 59.7633 67.4232 59.2182 67.3786C58.9356 67.3525 58.656 67.3186 58.3765 67.2848C56.4955 67.0479 54.6686 66.5741 52.9127 65.8712H52.9112ZM61.6258 67.5186C61.6489 67.5247 61.6721 67.5263 61.6953 67.5294C61.6381 67.5278 61.581 67.5263 61.5238 67.5247C61.5578 67.5217 61.5918 67.5217 61.6242 67.5186H61.6258ZM62.296 67.4878C63.4357 67.4201 64.7005 67.2925 66.0317 67.1048C66.2031 67.194 66.3699 67.2586 66.5352 67.2986C65.5391 67.4171 64.5445 67.4924 63.5562 67.5247C63.1346 67.537 62.7145 67.5247 62.2945 67.4863L62.296 67.4878ZM66.2294 67.0756C67.0216 66.9633 67.837 66.8295 68.6632 66.6741C69.4894 66.5234 70.2987 66.3557 71.077 66.1773C70.85 66.4049 70.6029 66.5541 70.3388 66.6264C69.8045 66.7541 69.264 66.8679 68.7173 66.9695C68.1706 67.071 67.6255 67.1556 67.0803 67.2309C66.8085 67.2571 66.5228 67.2063 66.2278 67.0756H66.2294ZM71.2731 66.1327C72.5827 65.8297 73.8043 65.4974 74.893 65.1529C74.5147 65.3374 74.1301 65.499 73.7317 65.6389C72.8005 65.9635 71.8461 66.2496 70.8716 66.4957C71.0137 66.3988 71.1465 66.2788 71.2731 66.1342V66.1327ZM75.5308 64.9421C75.5633 64.9314 75.5942 64.9206 75.6266 64.9114C75.5741 64.9314 75.5247 64.9514 75.4737 64.9744C75.4938 64.9652 75.5123 64.9514 75.5308 64.9421ZM76.0111 64.6545C77.1632 63.9269 78.2102 62.9763 79.1415 61.8242C80.6703 61.312 81.9969 60.7921 83.0656 60.2783C81.6865 61.5597 80.1576 62.6533 78.499 63.547C78.2365 63.6854 77.9755 63.8223 77.7099 63.9546C77.2203 64.19 76.6505 64.4238 76.0111 64.6545ZM83.4069 60.1107C83.7204 59.9522 84.0092 59.7938 84.2717 59.6369C83.4362 60.3368 82.5668 60.9998 81.6649 61.6227C82.2703 61.152 82.8525 60.646 83.4084 60.1122L83.4069 60.1107ZM83.691 59.8307C85.5767 57.9588 87.1611 55.7299 88.4012 53.1935C89.7448 52.5336 90.7687 51.8875 91.4173 51.2784C91.1609 51.7122 90.8953 52.1398 90.6189 52.5628C89.0298 54.9316 87.1426 57.102 84.9991 59.0093C84.6562 59.2754 84.2176 59.5508 83.691 59.8292V59.8307ZM95.3584 40.5234C95.5252 40.3388 95.6595 40.1573 95.763 39.9804C95.2611 42.683 94.4272 45.2933 93.3013 47.7621C94.2758 45.4472 94.9661 43.0184 95.3568 40.5219L95.3584 40.5234ZM95.3862 40.3342C95.9143 36.8379 95.8618 33.2201 95.1901 29.6269C95.1746 29.5485 95.1576 29.47 95.1437 29.39C95.5175 28.9855 95.7568 28.5994 95.8449 28.2302C96.4996 32.068 96.4734 35.8704 95.8495 39.5128C95.7754 39.7759 95.6194 40.0512 95.3862 40.3327V40.3342ZM95.1206 29.2854C94.3762 25.5292 93.0157 22.0083 91.1563 18.815C91.6258 18.3335 91.8914 17.8721 91.9238 17.4429C93.7338 20.5408 95.0526 23.9848 95.7491 27.6949C95.7491 27.7011 95.7491 27.7057 95.7491 27.7119C95.8402 28.1949 95.6163 28.7255 95.1159 29.2839L95.1206 29.2854Z" fill="white"/>
<mask id="mask1_921_77" style="mask-type:luminance" maskUnits="userSpaceOnUse" x="0" y="0" width="120" height="86">
<path d="M120 0H0V85.9985H120V0Z" fill="white"/>
</mask>
<g mask="url(#mask1_921_77)">
<path d="M62.5236 67.7462C61.4102 67.7462 60.2859 67.6908 59.1771 67.5831L58.9176 67.557L58.6813 67.5309L58.4945 67.5093C55.7518 67.1755 53.1156 66.528 50.586 65.5789C50.4794 65.5466 50.3713 65.5112 50.2694 65.4743L50.1829 65.4405L50.1891 65.4251C48.5197 64.7729 46.8951 63.9899 45.3523 63.087L45.2627 63.0532C44.4937 62.601 43.7215 62.0964 42.9648 61.555C42.3887 61.152 41.8405 60.7428 41.3324 60.3398L41.2552 60.2768C41.1348 60.1906 41.0668 60.1445 41.0066 60.0953L40.9309 60.0353L40.9417 60.023C37.8809 57.5203 35.3096 54.5455 33.2942 51.1799C33.2711 51.1476 33.2433 51.1107 33.2216 51.0707L33.1753 50.9923L33.183 50.9861C31.1955 47.616 29.8226 43.9443 29.0983 40.0758C28.3771 36.218 28.3308 32.3079 28.9609 28.4594C28.9655 28.4009 28.967 28.3717 28.9701 28.344L28.9856 28.2471H28.9933C29.645 24.4247 30.9438 20.7638 32.8572 17.3583C32.8834 17.2891 32.9236 17.2122 32.9715 17.1306L33.0193 17.0476L33.0317 17.0553C33.8718 15.594 34.8262 14.1896 35.8671 12.876L35.9149 12.7929C36.5234 12.0285 37.1875 11.2748 37.8855 10.558C38.3843 10.0334 38.9048 9.52123 39.4298 9.03208C39.4993 8.95825 39.5781 8.87365 39.6707 8.79366L39.7418 8.72906L39.751 8.73829C41.8081 6.8817 44.0844 5.28506 46.5198 3.98991L46.7885 3.84686C46.8781 3.79917 46.9692 3.74995 47.0696 3.70073L47.1545 3.6592V3.66227L47.224 3.62843C48.4996 2.98701 49.8308 2.42096 51.1744 1.94874C52.3017 1.55188 53.4461 1.21656 54.5935 0.942762L54.7912 0.892001C55.134 0.818168 55.4367 0.750488 55.744 0.690499C55.9278 0.650506 56.1131 0.615128 56.3 0.578211C56.4869 0.544371 56.6753 0.512069 56.8637 0.481306C57.1694 0.429007 57.4752 0.381324 57.7825 0.338254L58.0235 0.2998V0.305952C59.1956 0.149057 60.3832 0.0521517 61.5553 0.0183116C61.8982 0.0106206 62.2147 0.00292969 62.5329 0.00292969C63.6463 0.00292969 64.7706 0.0583044 65.8732 0.169054L66.0339 0.185974V0.182898L66.6655 0.252116V0.255192C69.4097 0.592055 72.1154 1.26886 74.7129 2.2656L74.8041 2.2856C74.9168 2.32713 75.0156 2.37327 75.1067 2.42096C75.7631 2.68245 76.4333 2.97317 77.0866 3.28388C78.0039 3.70688 78.8934 4.17141 79.7366 4.66363L79.8185 4.71286L79.8107 4.72824C81.2593 5.57886 82.6569 6.55099 83.9727 7.61541L84.0576 7.6631C84.1287 7.72001 84.192 7.78 84.2507 7.84153C84.365 7.93536 84.4885 8.03842 84.6105 8.14455C87.4675 10.5718 89.8782 13.419 91.7823 16.6138L91.8796 16.7738C93.7452 19.9547 95.0671 23.3818 95.8161 26.9812C95.864 27.2119 95.9134 27.4426 95.9551 27.6749C96.6778 31.5404 96.7242 35.455 96.0925 39.3082H96.0972L96.0848 39.4143C96.074 39.4636 96.0632 39.5112 96.0493 39.5605C95.3914 43.4013 94.071 47.0945 92.1221 50.5216L92.0897 50.6139C92.048 50.6831 92.0001 50.7554 91.946 50.8292C91.5924 51.4414 91.1955 52.0752 90.7724 52.7043C90.2674 53.4734 89.7315 54.2132 89.1801 54.907L89.123 54.9792L89.1107 54.9716C88.0003 56.3621 86.771 57.6742 85.4583 58.8709L85.3981 58.9478C85.3147 59.0231 85.2221 59.097 85.1263 59.1739C83.1094 60.969 80.8748 62.5225 78.4873 63.7869L78.2155 63.9315V63.9284L77.8618 64.1099C75.4712 65.3112 72.9586 66.2249 70.3719 66.8341L70.2761 66.8571H70.2746C69.7727 66.9725 69.2661 67.0817 68.7519 67.1771C68.2639 67.2663 67.7759 67.3447 67.2863 67.4139L67.1813 67.4324C65.5968 67.6447 64.0494 67.7493 62.519 67.7493M61.6881 67.5478C61.8874 67.5524 62.085 67.557 62.2827 67.557V67.4724C62.0758 67.4847 61.8719 67.4955 61.6711 67.5032L61.6912 67.5293L61.6881 67.5462V67.5478ZM61.0009 67.5232C61.1739 67.5309 61.3453 67.5385 61.5152 67.5447V67.4893C61.37 67.4662 61.2264 67.4401 61.0828 67.4124L61.0735 67.5232C61.0488 67.5232 61.0241 67.5232 61.0009 67.5232ZM66.0091 67.2048C65.5505 67.2709 65.0965 67.3278 64.6532 67.3786C65.1351 67.3478 65.62 67.3063 66.1064 67.2524C66.074 67.2386 66.0416 67.2217 66.0076 67.2048H66.0091ZM53.531 66.0111C55.097 66.5864 56.7247 66.9817 58.3817 67.1909C58.6613 67.2248 58.9408 67.2571 59.2219 67.2847C59.5353 67.3094 59.8813 67.3263 60.255 67.3324C59.1832 67.0402 58.1208 66.5895 57.0783 65.9911C55.8413 66.0757 54.5781 66.0665 53.5295 66.0127L53.531 66.0111ZM57.6806 65.9742C58.9809 66.6664 60.3121 67.1171 61.6433 67.3155C62.8356 67.2678 64.1714 67.1463 65.6045 66.9556C65.586 66.9448 65.5706 66.9325 65.5536 66.9171C65.081 66.5649 64.5899 66.028 64.0896 65.3189C61.7978 65.6435 59.645 65.865 57.6791 65.9727L57.6806 65.9742ZM66.6454 67.114C66.7906 67.1417 66.9326 67.1509 67.0701 67.1386C67.6091 67.0648 68.1527 66.9786 68.6963 66.8787C69.2414 66.7771 69.7788 66.6618 70.3116 66.5356C70.4429 66.4987 70.5726 66.4403 70.6977 66.3618C70.0259 66.5095 69.3495 66.6479 68.6762 66.7725C67.989 66.9002 67.3095 67.0125 66.6454 67.114ZM64.4247 65.2728C64.8741 65.8896 65.3142 66.3618 65.7343 66.6756C65.8563 66.7664 65.9752 66.8402 66.0941 66.9063C66.8832 66.7771 67.7527 66.6356 68.6206 66.4726C69.4993 66.3095 70.361 66.1296 71.1857 65.9388C71.2212 65.8681 71.3046 65.7542 71.3865 65.6266C71.666 65.179 71.9054 64.5806 72.0999 63.8454C70.8382 64.1315 69.5534 64.3945 68.2762 64.6314C66.9882 64.8713 65.6926 65.0867 64.4247 65.2713V65.2728ZM54.7047 66.6418C54.9116 66.6925 55.1217 66.7387 55.3286 66.7848C55.1217 66.7295 54.9163 66.6695 54.7124 66.6095L54.7032 66.6433L54.7047 66.6418ZM72.6436 65.8958C72.205 66.0096 71.7509 66.1188 71.2907 66.2265C71.2722 66.2511 71.2537 66.2772 71.232 66.3018C71.7046 66.1757 72.1772 66.0404 72.6436 65.8942V65.8958ZM72.4304 63.7731C72.2189 64.6175 71.9548 65.2943 71.6413 65.7881C71.6305 65.8081 71.6181 65.825 71.6073 65.8419C73.0235 65.5035 74.3145 65.1359 75.448 64.7498C76.6016 64.0945 77.6811 63.1962 78.6432 62.0841C76.7715 62.6871 74.6836 63.2547 72.4304 63.7731ZM45.8218 61.3104C47.8865 63.1609 50.1551 64.6145 52.5735 65.6327C53.6391 65.7312 55.0383 65.7619 56.6104 65.7066C54.8978 64.6344 53.2778 63.1639 51.7859 61.3304C49.5127 61.4396 47.485 61.4335 45.8218 61.3089V61.3104ZM52.1628 61.3104C53.7163 63.187 55.4043 64.6621 57.1864 65.6989C59.1863 65.5927 61.4596 65.3728 63.895 65.0375C63.1197 63.87 62.3321 62.2995 61.5461 60.3583C58.1717 60.8397 55.0167 61.1628 52.1643 61.3104H52.1628ZM42.3857 60.7551C42.6343 60.9443 42.886 61.132 43.1408 61.3135C45.4836 62.9547 48.0209 64.2945 50.6802 65.2943C50.918 65.3651 51.196 65.4297 51.5049 65.4851C49.2857 64.4314 47.2008 63.0086 45.3044 61.2489C44.1415 61.1612 43.1563 60.9905 42.3857 60.7567V60.7551ZM74.8875 65.1344L74.9183 65.2128C75.1037 65.1405 75.289 65.0651 75.4727 64.9898L75.4527 64.9482C75.2674 65.0098 75.0789 65.0728 74.8875 65.1344ZM61.8518 60.3121C62.6456 62.2687 63.4471 63.8407 64.227 64.9882C65.5628 64.7975 66.9064 64.576 68.2206 64.333C69.5317 64.0899 70.8629 63.8146 72.1833 63.5131C72.4999 62.1657 72.676 60.4106 72.71 58.2987C70.951 58.6986 69.1318 59.0724 67.3017 59.4092C65.4748 59.7492 63.6432 60.0522 61.8534 60.3121H61.8518ZM75.6133 64.8744L75.6318 64.9252C75.794 64.8575 75.9561 64.7883 76.1167 64.716C76.092 64.7267 76.0658 64.7375 76.0395 64.7452L75.9901 64.6468C75.865 64.7267 75.7384 64.8021 75.6133 64.8759V64.8744ZM82.5288 60.6305C81.5697 61.0582 80.4424 61.4873 79.1683 61.9119C78.4502 62.8225 77.6255 63.6192 76.7329 64.2745C77.0711 64.1391 77.3815 64.0023 77.6641 63.8669C77.9267 63.7361 78.1908 63.6008 78.4502 63.4608C79.9111 62.6748 81.2809 61.7242 82.5288 60.6321V60.6305ZM73.0111 58.231C72.9787 60.3214 72.8103 62.0703 72.5092 63.4362C74.9013 62.8794 77.102 62.2672 79.0509 61.6181C80.2941 60.043 81.335 58.0618 82.1056 55.756C79.383 56.6405 76.3252 57.4727 73.0096 58.231H73.0111ZM81.6439 61.6073C81.4786 61.7396 81.3087 61.8657 81.1389 61.9903C81.3149 61.8734 81.491 61.755 81.6655 61.6365L81.6439 61.6073ZM82.467 55.6376C81.7381 57.8818 80.7574 59.8368 79.5451 61.4519C81.0431 60.9366 82.3095 60.4198 83.3102 59.9184C85.1757 58.1156 86.7695 55.9452 88.0235 53.4811C86.5146 54.1932 84.6476 54.9193 82.4685 55.6376H82.467ZM39.4622 53.0134C40.7888 55.5576 42.4026 57.8387 44.2635 59.7984C44.6203 60.1752 45.0141 60.5629 45.4666 60.9828C47.0449 61.0843 49.1791 61.1243 51.5373 61.0212C51.4539 60.9166 51.3705 60.809 51.2887 60.6998C49.6517 58.5601 48.2077 55.9837 46.9939 53.0427C44.1184 53.1811 41.5517 53.1719 39.4622 53.0165V53.0134ZM47.3167 53.0211C48.5104 55.8975 49.9297 58.4186 51.5296 60.5152C51.6562 60.6798 51.7829 60.8413 51.911 60.9997C54.8128 60.8582 58.0142 60.5429 61.4271 60.0614C60.5067 57.7449 59.6157 54.9869 58.7771 51.8644C54.6707 52.4505 50.8161 52.8381 47.3167 53.0211ZM34.7135 52.1382C36.5404 55.19 38.8476 57.8695 41.5672 60.1029C42.2559 60.4737 43.3972 60.749 44.9508 60.912C44.6419 60.6182 44.3392 60.3198 44.0412 60.006C42.12 57.9833 40.4599 55.6207 39.1055 52.9873C37.2091 52.8258 35.7343 52.5397 34.7135 52.1382ZM59.0798 51.8229C59.9199 54.9531 60.811 57.7095 61.7345 60.0214C63.546 59.7599 65.4007 59.4554 67.2477 59.1124C69.0669 58.7755 70.9062 58.3956 72.7177 57.9833C72.7424 55.5022 72.5787 52.6089 72.2297 49.3818C70.1124 49.8632 67.9102 50.3185 65.6802 50.7323C63.5012 51.1384 61.282 51.5045 59.0813 51.8229H59.0798ZM91.0287 51.7337C90.394 52.229 89.5276 52.7489 88.442 53.2811C87.344 55.5653 85.9185 57.6388 84.2306 59.4169C84.4978 59.2539 84.7356 59.0924 84.9364 58.9339C87.0583 57.0481 88.9439 54.8839 90.5376 52.5105C90.7044 52.252 90.8681 51.9952 91.0287 51.7337ZM38.826 57.8818C39.1256 58.1741 39.4283 58.4602 39.7402 58.7401C39.4391 58.4509 39.1426 58.1571 38.8538 57.8572L38.8275 57.8818H38.826ZM72.5262 49.3156C72.8737 52.532 73.0404 55.4238 73.0173 57.9141C76.3654 57.1404 79.4664 56.2882 82.2338 55.3776C82.2956 55.1823 82.3558 54.9854 82.4129 54.787C83.1496 52.2567 83.5588 49.3972 83.636 46.2839C80.3003 47.3698 76.5646 48.3897 72.5246 49.3156H72.5262ZM83.9434 46.1839C83.8739 49.3633 83.46 52.2874 82.7064 54.87C82.6677 55.0008 82.6291 55.1315 82.5905 55.2592C84.853 54.5009 86.7679 53.7425 88.2829 53.0027C88.5176 52.472 88.7385 51.9844 88.9331 51.5106C89.9616 49.0142 90.6442 46.307 90.9608 43.4598C89.052 44.3612 86.6922 45.2779 83.9434 46.1824V46.1839ZM34.0432 51.8152C34.4834 52.5089 34.9513 53.1857 35.4424 53.8441C35.0115 53.2119 34.6023 52.5628 34.2177 51.8998C34.1606 51.8752 34.1004 51.8475 34.0432 51.8152ZM39.3078 52.715C41.388 52.8796 43.9701 52.8919 46.8765 52.7504C45.6179 49.6371 44.662 46.2285 44.0334 42.6168C40.9711 42.7737 38.2237 42.7661 35.9829 42.603L36.0539 43.0029C36.7041 46.4762 37.7975 49.7433 39.3078 52.715ZM91.2835 43.306C90.9716 46.2485 90.2766 49.048 89.2141 51.6275C89.0504 52.0259 88.8759 52.4136 88.6952 52.7981C90.0836 52.0875 91.0503 51.423 91.5692 50.8154C93.2896 47.7667 94.471 44.4411 95.0748 40.9402C94.2656 41.6801 92.9931 42.4753 91.282 43.306H91.2835ZM44.3408 42.6015C44.9708 46.2147 45.933 49.6233 47.1978 52.735C50.7095 52.5505 54.5781 52.1598 58.6983 51.5722C57.8598 48.4081 57.1046 44.9764 56.4513 41.3694C52.118 41.9877 48.044 42.403 44.3408 42.6015ZM30.7276 41.6078C31.4009 45.1995 32.6611 48.6065 34.4756 51.7352C35.3852 52.1721 36.9018 52.5028 38.9526 52.6874C37.4732 49.734 36.3983 46.4962 35.7543 43.0583C35.7265 42.8999 35.6972 42.7399 35.6709 42.5799V42.5769C33.5058 42.3984 31.8441 42.0754 30.7291 41.6063L30.7276 41.6078ZM56.7509 41.3263C57.4042 44.938 58.1609 48.3666 59.001 51.5291C61.1785 51.2138 63.4054 50.8461 65.6231 50.4339C67.8484 50.0201 70.0614 49.5648 72.1957 49.0788C71.8359 45.8378 71.3015 42.3646 70.605 38.7529C68.3503 39.2651 66.0308 39.742 63.7035 40.1742C61.3685 40.6064 59.0304 40.9956 56.7509 41.3248V41.3263ZM29.574 40.9033C30.343 44.4934 31.682 47.9005 33.5552 51.0323C33.6479 51.1553 33.773 51.2768 33.9305 51.3953C32.2456 48.3635 31.0658 45.0841 30.4233 41.6463L30.3909 41.454C30.0558 41.2863 29.7824 41.1017 29.574 40.9033ZM70.9 38.6883C71.5965 42.2907 72.1293 45.764 72.4907 49.0142C76.5491 48.0866 80.3003 47.0607 83.6422 45.9716C83.6978 42.6168 83.3627 39.0929 82.6446 35.4935C79.1174 36.6395 75.167 37.7131 70.9016 38.6868L70.9 38.6883ZM93.2819 47.759C93.1228 48.1328 92.9576 48.505 92.7861 48.8727C92.9684 48.5096 93.1429 48.1435 93.3112 47.7744L93.2819 47.7605V47.759ZM82.9365 35.3997C83.6546 38.9913 83.9959 42.5138 83.9464 45.8732C86.7293 44.9564 89.0999 44.032 90.9932 43.126C91.3268 39.8127 91.1692 36.3718 90.5191 32.8986C90.4944 32.7648 90.4681 32.6309 90.4403 32.4971C88.3956 33.46 85.8707 34.4383 82.9365 35.3997ZM90.7245 32.3633C90.7584 32.5233 90.7893 32.6817 90.8202 32.8432C91.4627 36.2826 91.6294 39.6881 91.3175 42.9706C93.1614 42.0662 94.4586 41.2109 95.1721 40.428C95.708 36.9086 95.6524 33.277 94.9837 29.6868C94.1158 30.5221 92.6827 31.4219 90.7245 32.3633ZM95.5798 40.408C95.5304 40.468 95.481 40.528 95.4269 40.588C95.3111 41.3478 95.1644 42.1092 94.9899 42.8645C95.2169 42.0508 95.4146 41.2325 95.5814 40.4065L95.5798 40.408ZM35.9319 42.32C38.1573 42.4846 40.9031 42.4861 43.984 42.3292L43.967 42.2415C43.9362 42.06 43.9037 41.877 43.8759 41.6939C43.337 38.2484 43.1053 34.7183 43.1902 31.2066C41.7401 31.2804 40.3595 31.3189 39.087 31.3189C37.8299 31.3173 36.6624 31.2819 35.6123 31.2097C35.2092 34.9413 35.3173 38.6776 35.9319 42.3215V42.32ZM43.496 31.1866C43.4095 34.6875 43.6381 38.2053 44.1771 41.6478C44.2002 41.8124 44.2311 41.9785 44.2605 42.1462L44.2898 42.3154C47.99 42.1108 52.0608 41.6939 56.3957 41.0725C56.0467 39.1252 55.7301 37.1394 55.4522 35.1643C55.2112 33.4508 54.9981 31.7219 54.8159 30.0299C50.7698 30.6098 46.9615 31.0005 43.496 31.1881V31.1866ZM30.6673 41.2786C31.7252 41.7724 33.39 42.1123 35.6184 42.2969C35.01 38.6514 34.9034 34.9151 35.3065 31.185C33.2247 31.0251 31.6264 30.7174 30.5515 30.2775C29.9847 33.9492 30.0218 37.6485 30.6673 41.2786ZM29.2126 29.3608C28.7153 32.6186 28.7277 35.9257 29.2466 39.1836C29.2929 39.4651 29.3423 39.7451 29.3933 40.0219C29.4689 40.4265 29.7824 40.7879 30.3291 41.1033C29.7129 37.4839 29.6913 33.7984 30.2627 30.1468C29.7809 29.916 29.4303 29.653 29.211 29.3592L29.2126 29.3608ZM55.1155 29.9822C55.3008 31.6896 55.5139 33.417 55.7533 35.1213C56.0328 37.0994 56.3479 39.0867 56.6969 41.0264C58.9917 40.6957 61.3299 40.3065 63.6479 39.8773C65.9736 39.4451 68.2932 38.9667 70.5479 38.4576C70.1711 36.5195 69.7479 34.5521 69.2908 32.6079C68.8939 30.9112 68.4677 29.2208 68.0276 27.5872C65.9273 28.0625 63.7637 28.5071 61.597 28.9101C59.4226 29.3131 57.2436 29.673 55.117 29.9822H55.1155ZM95.2416 29.4207L95.2787 29.6115C95.9227 33.0539 96.0076 36.5333 95.5304 39.965C95.6354 39.802 95.7096 39.642 95.7528 39.4897C96.3659 35.9073 96.3875 32.2464 95.8068 28.6132C95.6864 28.8731 95.4964 29.1439 95.2432 29.4207H95.2416ZM68.3241 27.5211C68.7719 29.19 69.1966 30.8789 69.5873 32.5402C70.0475 34.5044 70.4691 36.4733 70.8429 38.3899C75.1021 37.4193 79.054 36.3487 82.5844 35.2074L82.5473 35.0213C82.5149 34.8613 82.4824 34.7029 82.4485 34.5444C81.7041 31.1389 80.6478 27.7749 79.3027 24.5432C75.9916 25.6122 72.2976 26.6136 68.3225 27.5211H68.3241ZM79.593 24.4493C80.9443 27.698 82.0037 31.0712 82.7481 34.4798C82.7836 34.646 82.8175 34.8136 82.8515 34.9797L82.8762 35.1105C85.8243 34.1491 88.3478 33.1739 90.3832 32.2156C89.6404 28.5963 88.3895 25.0708 86.666 21.7344C84.7325 22.6358 82.3527 23.5495 79.593 24.4493ZM86.9424 21.6037C88.6659 24.9385 89.9183 28.4625 90.6689 32.0803C92.6811 31.1112 94.1112 30.1975 94.9189 29.3592C94.2069 25.7383 92.9051 22.2713 91.0488 19.0503C90.2056 19.8486 88.8234 20.7069 86.9424 21.6037ZM35.6431 30.9297C37.745 31.0712 40.3224 31.0651 43.198 30.9128C43.3107 27.1519 43.7786 23.4926 44.594 20.0301C42.2606 20.1532 40.1618 20.1609 38.4337 20.0517C37.013 23.508 36.074 27.1673 35.6416 30.9297H35.6431ZM30.5978 29.9929C31.6356 30.4406 33.2294 30.7482 35.3405 30.9082C35.7713 27.1473 36.7056 23.488 38.1171 20.0286C36.4122 19.9009 35.0903 19.661 34.1853 19.3118C32.4078 22.6896 31.2032 26.2813 30.5978 29.9929ZM44.9075 20.0147C44.0875 23.471 43.6149 27.1304 43.5053 30.8943C46.9553 30.7005 50.7482 30.3067 54.785 29.7253C54.3912 26.0075 54.1488 22.422 54.0607 19.0641C50.8053 19.5333 47.7275 19.8517 44.9075 20.0132V20.0147ZM32.9498 18.4796C31.1353 21.7421 29.9029 25.24 29.2913 28.8793C29.3964 29.2239 29.7392 29.5653 30.3121 29.8591C30.9237 26.1536 32.1344 22.5666 33.9042 19.1933C33.461 18.9888 33.1398 18.7503 32.9514 18.4796H32.9498ZM54.3572 19.0226C54.4468 22.3774 54.6908 25.9629 55.0862 29.6838C57.2003 29.3746 59.3732 29.0147 61.543 28.6117C63.6958 28.2117 65.8516 27.7703 67.9519 27.2965C66.9743 23.6879 65.9072 20.2547 64.7768 17.0922C63.0888 17.4721 61.3407 17.8305 59.5848 18.1566C57.8459 18.4796 56.0884 18.7719 54.3588 19.0241L54.3572 19.0226ZM29.1493 28.4748V28.4917C29.0906 28.8362 29.0396 29.1854 28.9933 29.5315C29.0149 29.3777 29.0396 29.2239 29.0628 29.0716L29.1122 28.7701L29.1184 28.787C29.1894 28.3671 29.2697 27.9502 29.3562 27.5365L29.3176 27.5288C29.2635 27.8118 29.211 28.0933 29.1647 28.3794L29.1477 28.4763L29.1493 28.4748ZM91.2727 18.8288C93.1259 22.0298 94.4386 25.4738 95.1721 29.0747C95.5675 28.5855 95.7312 28.1333 95.654 27.7318C94.9899 24.1863 93.7529 20.8254 91.9692 17.7167C91.8704 18.0689 91.6372 18.4427 91.2712 18.8288H91.2727ZM65.0671 17.026C66.1991 20.1886 67.2662 23.6202 68.2453 27.2288C72.2189 26.3244 75.9021 25.3307 79.1899 24.274C77.7244 20.8007 75.9623 17.5567 73.947 14.6265C71.2645 15.4863 68.2778 16.2923 65.0671 17.026ZM74.2481 14.5311C76.2588 17.4675 78.0193 20.7131 79.4818 24.1817C82.2369 23.288 84.6105 22.3835 86.5394 21.4899C84.7757 18.1335 82.5766 15.0587 80.0022 12.3407C78.41 13.0729 76.475 13.8082 74.2496 14.5311H74.2481ZM80.291 12.2054C82.8592 14.931 85.0537 18.0089 86.8127 21.3622C88.723 20.4547 90.1006 19.5963 90.9067 18.8073C88.9979 15.5586 86.5733 12.6391 83.6978 10.1273C82.9797 10.7795 81.8338 11.4793 80.2895 12.2054H80.291ZM38.5465 19.7825C40.2638 19.8824 42.347 19.8671 44.6651 19.7379C45.3863 16.7522 46.3546 13.9866 47.5421 11.5132C45.9407 11.6055 44.4983 11.6162 43.2844 11.5501C41.3973 14.0127 39.8051 16.783 38.548 19.7825H38.5465ZM34.315 19.0703C35.1999 19.4133 36.5141 19.644 38.2252 19.7625C39.4746 16.7661 41.0529 13.9958 42.92 11.5286C41.7571 11.4455 40.8352 11.2855 40.1804 11.0517C37.8654 13.4328 35.8918 16.1293 34.315 19.0703ZM47.8865 11.4932C46.6866 13.9574 45.709 16.7276 44.977 19.7209C47.7661 19.5548 50.8176 19.2333 54.0545 18.7642C53.9835 15.857 54.0345 13.1836 54.2028 10.8148C51.9543 11.1409 49.8293 11.3701 47.885 11.4916L47.8865 11.4932ZM33.1213 18.1766C33.2479 18.4673 33.5552 18.7273 34.0324 18.9488C35.6061 16.0124 37.5689 13.3144 39.8761 10.9271C39.5734 10.7856 39.3449 10.6256 39.2028 10.4411C36.7937 12.7191 34.7505 15.3202 33.1213 18.1766ZM54.4931 10.7718C54.3263 13.1406 54.2769 15.8124 54.3495 18.7211C56.0436 18.4719 57.7856 18.1812 59.5276 17.8582C61.2634 17.5367 62.9931 17.1814 64.6702 16.8061C63.6865 14.0681 62.675 11.5916 61.6634 9.44278C60.4975 9.70119 59.2975 9.94577 58.0899 10.1703C56.9007 10.3934 55.6915 10.5933 54.4931 10.7718ZM32.7831 18.1289C32.6842 18.3104 32.5885 18.4935 32.4974 18.675C32.5916 18.4996 32.6904 18.3243 32.7877 18.1489C32.7877 18.1428 32.7831 18.1335 32.7831 18.1274V18.1289ZM83.9171 9.91808C86.7911 12.4315 89.2141 15.3433 91.126 18.5796C91.5538 18.0997 91.7484 17.6552 91.7113 17.2598C89.8365 14.125 87.4243 11.304 84.5487 8.91057C84.4731 9.22743 84.2599 9.56584 83.9171 9.91808ZM91.8487 17.1322L92.0032 17.3967C92.0819 17.5306 92.1591 17.6644 92.2348 17.7997C92.0711 17.4967 91.8997 17.1952 91.7237 16.8968L91.7283 16.8768H91.7252L91.6681 16.7984C91.5183 16.5477 91.3685 16.3 91.2125 16.0554L91.1862 16.0724C91.4148 16.4215 91.6356 16.7753 91.8487 17.1337V17.1322ZM39.0036 9.87809C38.7024 10.1642 38.4028 10.4595 38.1141 10.7579C36.1775 12.7899 34.4988 15.0602 33.1228 17.5044C33.1074 17.5475 33.0935 17.589 33.0811 17.6352C34.7011 14.8864 36.7056 12.3761 39.0468 10.1703C39.0345 10.1365 39.0237 10.1011 39.0175 10.0627C39.0051 10.0027 39.0005 9.94115 39.0036 9.87809ZM61.9491 9.37818C62.9607 11.5255 63.9737 14.002 64.9621 16.7399C68.1419 16.0185 71.1054 15.2248 73.774 14.3757C72.0104 11.8439 70.0985 9.61352 68.0878 7.74308C66.2254 8.32759 64.1591 8.87673 61.9491 9.37818ZM68.4183 7.63849C70.4197 9.52123 72.3223 11.7547 74.0736 14.2835C76.2943 13.5682 78.2186 12.8437 79.7969 12.13C77.5406 9.78272 75.0511 7.77077 72.4026 6.14645C71.2861 6.64789 69.9472 7.15088 68.4183 7.64002V7.63849ZM72.7347 5.9957C75.3708 7.62926 77.8417 9.64582 80.0872 11.9931C81.6423 11.2701 82.7851 10.5841 83.4878 9.94577C80.9551 7.7677 78.1413 5.95879 75.1176 4.56827C74.5909 5.02203 73.7894 5.50041 72.7347 5.9957ZM43.5115 11.2548C44.7114 11.3086 46.1291 11.2886 47.6966 11.1932C48.6108 9.33972 49.6409 7.67694 50.7605 6.24797C49.8617 6.30026 49.0432 6.31103 48.3421 6.28488C46.6017 7.71232 44.977 9.38433 43.5115 11.2563V11.2548ZM40.4074 10.8179C41.0606 11.0256 41.9795 11.1686 43.1408 11.2378C44.5832 9.37048 46.1831 7.69694 47.8989 6.2572C47.2611 6.21413 46.7406 6.1326 46.3453 6.0157C44.2064 7.38469 42.2096 8.99824 40.4074 10.8195V10.8179ZM51.1651 6.22182C50.0208 7.64925 48.9706 9.31203 48.0425 11.1717C49.9559 11.0471 52.0361 10.8225 54.226 10.5011C54.3603 8.7429 54.5595 7.16934 54.8221 5.82035C53.531 6.00955 52.3002 6.14337 51.1651 6.22182ZM39.419 10.2349C39.5426 10.4088 39.768 10.5641 40.0954 10.701C41.8837 8.88288 43.8667 7.26317 45.9886 5.88495C45.8403 5.81727 45.7183 5.7419 45.6272 5.65884C43.3926 6.94323 41.3062 8.48295 39.4175 10.2349H39.419ZM55.117 5.77728C54.853 7.11397 54.6507 8.68753 54.5148 10.4611C55.6745 10.2872 56.8559 10.0904 58.0327 9.8704C59.1987 9.65505 60.3724 9.41509 61.5291 9.15822C60.7631 7.55389 60.0048 6.15875 59.2744 5.00511C58.6057 5.15278 57.9138 5.29275 57.2019 5.42504C56.4884 5.55732 55.7935 5.67576 55.1155 5.77574L55.117 5.77728ZM45.411 5.22969C43.4497 6.29565 41.6104 7.57081 39.9379 9.02747C39.7927 9.15514 39.6476 9.28281 39.5055 9.41202C39.3742 9.59198 39.3047 9.76734 39.3078 9.92577C41.178 8.19993 43.2427 6.6802 45.4496 5.40965C45.4372 5.37735 45.4264 5.34505 45.4218 5.31275C45.4141 5.2866 45.4125 5.25891 45.411 5.22815V5.22969ZM75.3554 4.34523C78.3699 5.74498 81.1806 7.55696 83.7071 9.7335C84.0715 9.3551 84.2646 9.00132 84.2785 8.68292C81.7288 6.60636 78.8795 4.91128 75.811 3.64843C75.7415 3.86993 75.5886 4.10373 75.3554 4.34369V4.34523ZM59.5678 4.94205C60.3013 6.10953 61.058 7.50466 61.8163 9.09515C63.9737 8.60754 65.9952 8.07226 67.8268 7.50159C66.2887 6.09876 64.7073 4.92359 63.1244 4.00529C62.0372 4.33908 60.8403 4.65441 59.5678 4.94205ZM84.5812 8.53986C84.7433 8.67215 84.9055 8.80751 85.0645 8.94287C84.9024 8.80136 84.7418 8.65984 84.5796 8.51833C84.5796 8.52602 84.5796 8.53217 84.5796 8.5414L84.5812 8.53986ZM75.8588 3.33926C78.8394 4.55904 81.6176 6.18182 84.121 8.16301C84.0932 8.12609 84.0623 8.08764 84.0267 8.04918C83.27 7.42622 82.4685 6.82171 81.6578 6.26335L81.633 6.12953L81.5805 6.20797C81.2779 6.00186 80.9721 5.80343 80.6632 5.60654C79.4741 4.84975 78.2263 4.15911 76.9538 3.55768C76.5708 3.38079 76.1816 3.21312 75.7924 3.05162C75.8156 3.11007 75.8341 3.16852 75.8465 3.22851C75.8527 3.26235 75.8557 3.29772 75.8573 3.33772L75.8588 3.33926ZM42.1926 6.97553C41.9085 7.18934 41.6274 7.4093 41.3494 7.6308C41.632 7.41545 41.9193 7.20472 42.2096 6.9986L42.1926 6.97553ZM63.5135 3.88224C65.0764 4.81591 66.6377 5.99724 68.1573 7.39699C69.6553 6.92323 70.9741 6.4387 72.0845 5.95417C70.0414 4.73439 67.921 3.75457 65.7806 3.04854C65.1412 3.32541 64.3768 3.6069 63.512 3.88377L63.5135 3.88224ZM48.7205 5.98186C49.4 5.99109 50.1798 5.97109 51.0261 5.91726C52.0315 4.68363 53.111 3.62228 54.2383 2.76244C54.0777 2.77166 53.9264 2.77782 53.7781 2.78243C52.0438 3.62536 50.3312 4.70517 48.7205 5.98186ZM46.6959 5.79574C47.1082 5.88342 47.6425 5.94187 48.288 5.96802C49.7737 4.72824 51.423 3.64843 53.1372 2.7732C53.0631 2.76859 52.9905 2.76397 52.9241 2.75628C50.759 3.54537 48.6664 4.56827 46.6974 5.79574H46.6959ZM55.7394 2.60246C55.4136 2.65015 55.0954 2.68706 54.7866 2.71783C53.6407 3.54845 52.501 4.61903 51.44 5.88803C52.5257 5.80804 53.6855 5.67884 54.8869 5.50348C55.1248 4.35446 55.4105 3.37925 55.7394 2.60246ZM66.1837 2.86396C68.3086 3.59306 70.4058 4.58211 72.4212 5.80343C73.4806 5.32352 74.2883 4.86206 74.821 4.43291C72.486 3.38233 70.0398 2.5917 67.5457 2.08102C67.2199 2.33328 66.7612 2.59324 66.1837 2.86242V2.86396ZM45.9052 5.50195C45.9994 5.56963 46.1291 5.63115 46.2959 5.68653C47.9298 4.64979 49.6517 3.75303 51.4277 3.01162C49.5158 3.67766 47.6641 4.51135 45.9052 5.50195ZM56.0637 2.55324C55.724 3.31311 55.4275 4.29139 55.1804 5.45888C55.8197 5.36197 56.4791 5.25122 57.1447 5.12817C57.8119 5.00511 58.4636 4.87283 59.0983 4.73285C58.4481 3.73149 57.8181 2.92702 57.225 2.33943C57.032 2.37789 56.839 2.41788 56.6459 2.45326C56.4529 2.49018 56.2583 2.52402 56.0637 2.55478V2.55324ZM50.2555 3.1193C48.6927 3.64843 47.1777 4.29908 45.7353 5.05895C45.726 5.10971 45.7075 5.18816 45.7198 5.25737C47.1761 4.43752 48.6942 3.71919 50.2555 3.1193ZM57.5463 2.26714C58.1346 2.8778 58.7539 3.68381 59.3902 4.66825C60.5716 4.4006 61.6989 4.10681 62.7445 3.79148C61.3067 2.99316 59.8643 2.40404 58.4512 2.04103C58.1609 2.12101 57.8567 2.19638 57.5463 2.2656V2.26714ZM67.8299 1.83337C70.3085 2.35789 72.7439 3.15929 75.0697 4.21448C75.3245 3.96991 75.4789 3.74226 75.5299 3.53768C73.1362 2.57785 70.6328 1.88875 68.0847 1.49189C68.0307 1.60264 67.9457 1.71647 67.8314 1.83337H67.8299ZM52.0608 2.24407C50.4223 2.61785 48.8409 3.17775 47.3553 3.90223C47.1885 3.98683 47.0202 4.07143 46.8549 4.15757C46.8318 4.16988 46.8086 4.18372 46.7854 4.19603C48.4734 3.39463 50.2432 2.74244 52.0593 2.24868C52.0593 2.24561 52.0593 2.24407 52.0593 2.24253L52.0608 2.24407ZM59.0056 1.87798C60.3693 2.27637 61.7592 2.8778 63.1429 3.66997C63.9598 3.41463 64.6903 3.15621 65.3204 2.90241C63.3591 2.29021 61.3777 1.89951 59.4211 1.73954C59.2883 1.78569 59.1508 1.83183 59.0056 1.87798ZM68.1604 1.19502C70.6761 1.5888 73.1485 2.26253 75.5114 3.20082C75.4496 3.03931 75.3245 2.90856 75.1361 2.79012C74.9724 2.7286 74.7902 2.66092 74.6095 2.59477C72.5231 1.83491 70.3441 1.30424 68.131 1.01352C68.1403 1.04121 68.148 1.06735 68.1542 1.09658C68.1604 1.13042 68.1604 1.1658 68.1604 1.19656V1.19502ZM50.1381 2.53786C49.9482 2.61323 49.7598 2.6886 49.5714 2.76705C49.7629 2.69937 49.9559 2.63477 50.152 2.57016L50.1381 2.53786ZM60.0342 1.49189C61.9522 1.6934 63.8857 2.11024 65.7852 2.73167C66.318 2.47941 66.7859 2.2333 67.1396 2.00257C64.8524 1.56419 62.5252 1.35807 60.2087 1.3996C60.1608 1.42883 60.1021 1.46113 60.0326 1.49189H60.0342ZM54.9302 2.27022C54.8051 2.32405 54.68 2.37789 54.5549 2.43326C54.6121 2.42711 54.6707 2.42404 54.731 2.41788C54.7958 2.36712 54.8607 2.3179 54.9302 2.27022ZM56.0637 1.91336C55.8259 2.05026 55.585 2.19638 55.3487 2.3502C55.5217 2.32713 55.6993 2.30252 55.8815 2.27329C55.9402 2.14716 56.0004 2.02872 56.0622 1.91336H56.0637ZM56.51 1.72108C56.4096 1.87336 56.317 2.03949 56.2243 2.22099C56.3448 2.19946 56.4652 2.17946 56.5903 2.15639C56.7154 2.13332 56.8359 2.10871 56.9563 2.0841C56.805 1.95027 56.6552 1.82876 56.51 1.72108ZM54.4962 1.90567L54.5256 2.01334C54.8005 1.92874 55.0769 1.84875 55.3549 1.77031L55.3919 1.8749C55.5294 1.81953 55.6699 1.76569 55.8074 1.71339L55.8552 1.81337C55.9958 1.73031 56.1378 1.6534 56.2784 1.57649L56.3865 1.51958C56.3525 1.49651 56.3201 1.47497 56.2861 1.45498L56.2583 1.53804C56.0359 1.51804 55.8135 1.50112 55.5911 1.49036V1.51035L55.5881 1.59034L55.6004 1.60418C55.4722 1.61341 55.3487 1.62572 55.2221 1.63495L55.236 1.74569C54.9503 1.79338 54.6584 1.84568 54.3665 1.90413L54.3742 1.93643C54.4144 1.9272 54.4561 1.9149 54.4962 1.90567ZM56.9949 1.74416C57.0938 1.82722 57.1926 1.91643 57.2945 2.01334C57.4752 1.97488 57.6497 1.93489 57.8196 1.89336C57.5432 1.83491 57.2667 1.78569 56.9965 1.74569L56.9949 1.74416ZM71.7664 1.51804C72.0999 1.60264 72.4351 1.69493 72.7625 1.78876C72.4351 1.68571 72.1046 1.58572 71.7741 1.49189L71.7664 1.51804ZM61.7175 1.10581C63.6432 1.15965 65.5736 1.37653 67.4716 1.758C67.6044 1.64725 67.7064 1.54265 67.7712 1.44575C65.7744 1.15349 63.7529 1.03967 61.7175 1.10427V1.10581ZM52.7295 1.64571L52.762 1.738C52.8701 1.68417 52.9936 1.62879 53.131 1.57188L53.1171 1.53189C52.9874 1.5688 52.8592 1.60572 52.7295 1.64725V1.64571ZM58.2119 1.66879C58.2983 1.69186 58.3864 1.71185 58.4729 1.73339C58.5146 1.71801 58.5609 1.70263 58.6088 1.68724C58.4775 1.68109 58.3431 1.67494 58.2119 1.66879ZM56.5533 1.49036L56.6768 1.50728C56.8343 1.52727 56.9934 1.54881 57.154 1.57496L57.1633 1.46421H57.3532C57.4382 1.46421 57.5246 1.46421 57.6096 1.46421L57.6049 1.35346C57.8922 1.32731 58.1794 1.30116 58.4651 1.2827L58.4543 1.17195C58.496 1.1658 58.5377 1.16272 58.5794 1.15657L58.5732 1.12427C58.2814 1.17503 57.991 1.22886 57.7053 1.28732L57.6775 1.17964C57.5571 1.21502 57.4382 1.24886 57.3162 1.28732L57.2776 1.18118C57.0752 1.26886 56.876 1.36269 56.6784 1.46267L56.6243 1.39345C56.6011 1.42421 56.5764 1.45652 56.5533 1.48882V1.49036ZM53.1666 1.5165L53.1851 1.55342C53.3442 1.52881 53.5001 1.50728 53.6577 1.48574L53.6345 1.38576C53.477 1.42575 53.3195 1.47036 53.165 1.51497L53.1666 1.5165ZM55.7826 0.993522C55.9927 1.07043 56.2135 1.18118 56.4359 1.32423C56.5934 1.11042 56.7587 0.92738 56.9285 0.781252C56.9146 0.781252 56.9007 0.787405 56.8884 0.787405L55.8197 0.985831C55.8089 0.988907 55.7965 0.991984 55.7826 0.993522ZM55.0753 1.29039C55.2035 1.29039 55.3333 1.29347 55.463 1.29654C55.5726 1.29962 55.6792 1.30577 55.7888 1.31039C55.5093 1.1981 55.2468 1.15349 54.9981 1.17349C54.8344 1.21502 54.6707 1.25655 54.5132 1.3027C54.7016 1.29501 54.89 1.29039 55.0753 1.29039ZM62.8556 0.781252C64.522 0.781252 66.2037 0.908921 67.8531 1.15195C67.8407 1.08274 67.7944 1.01506 67.7172 0.950452C66.1713 0.790481 64.5065 0.716648 62.8556 0.781252ZM58.2196 0.616666C58.0543 0.632048 57.8814 0.650506 57.7053 0.672041C57.4799 0.741259 57.2513 0.878158 57.0351 1.07966C57.1324 1.03505 57.2328 0.991984 57.3316 0.948914C57.6219 0.827398 57.9184 0.71511 58.2196 0.616666ZM60.848 0.616666C60.848 0.616666 60.848 0.619742 60.848 0.621281C62.7197 0.430545 64.6115 0.404396 66.4755 0.545909C66.4477 0.541295 66.4168 0.538219 66.3875 0.533604C66.2053 0.513608 66.0215 0.495149 65.8362 0.476691C64.1946 0.33364 62.5113 0.381324 60.8465 0.618204L60.848 0.616666ZM59.0705 0.378247L59.086 0.478229C59.2404 0.439775 59.3964 0.402858 59.5508 0.370556H59.5585L59.5508 0.332102C59.3902 0.345945 59.2311 0.361327 59.0705 0.378247ZM59.6157 0.412087L59.6265 0.438236L59.6157 0.369018C59.7608 0.373633 59.8936 0.381324 60.0125 0.393629L60.0095 0.293647C59.8736 0.302876 59.7377 0.31672 59.5987 0.327487L59.6095 0.342869L59.6002 0.369018H59.6064L59.6033 0.390553L59.6141 0.412087H59.6157ZM62.7475 0.201356V0.236734C62.9529 0.225967 63.1568 0.216738 63.3591 0.212123C63.1552 0.20597 62.9514 0.202894 62.7475 0.202894V0.201356Z" fill="white"/>
</g>
<path d="M58.8218 44.5613C59.1415 44.7658 59.6017 44.9227 60.0959 44.9227C60.8325 44.9227 61.2587 44.5443 61.2587 43.9783C61.2587 43.4676 60.9638 43.1646 60.2148 42.8846C59.3067 42.5555 58.7461 42.0802 58.7461 41.308C58.7461 40.4466 59.4642 39.8052 60.5406 39.8052C61.1027 39.8052 61.5213 39.9359 61.7637 40.0744L61.5645 40.6589C61.3931 40.5512 61.0224 40.3974 60.5221 40.3974C59.7607 40.3974 59.4719 40.8481 59.4719 41.2249C59.4719 41.7418 59.8102 41.9986 60.5777 42.294C61.5166 42.6647 61.9861 43.1046 61.9861 43.9198C61.9861 44.7351 61.3622 45.5211 60.0495 45.5211C59.5136 45.5211 58.9283 45.3565 58.6318 45.1627L58.8233 44.5613" fill="#1B1B1B"/>
<path d="M63.4115 43.5678C63.4285 44.5445 64.0447 44.946 64.7705 44.946C65.2909 44.946 65.6122 44.8583 65.8809 44.7491L66.009 45.2598C65.7558 45.3752 65.3095 45.5151 64.6748 45.5151C63.4547 45.5151 62.7119 44.7014 62.7119 43.5109C62.7119 42.3203 63.43 41.3574 64.5944 41.3574C65.8948 41.3574 66.2361 42.4988 66.2361 43.2309C66.2361 43.3786 66.2268 43.494 66.2113 43.5755L63.4146 43.5678M65.5318 43.051C65.5396 42.5987 65.3434 41.8758 64.5388 41.8758C63.7945 41.8758 63.4779 42.5495 63.4238 43.051H65.5318Z" fill="#1B1B1B"/>
<path d="M69.9764 45.2932C69.7833 45.3809 69.3633 45.5224 68.8289 45.5224C67.6228 45.5224 66.8398 44.7087 66.8398 43.4858C66.8398 42.263 67.6815 41.3662 68.9849 41.3662C69.4127 41.3662 69.7926 41.4723 69.9872 41.58L69.825 42.1307C69.6521 42.0384 69.3833 41.94 68.9849 41.94C68.0691 41.94 67.5719 42.6214 67.5719 43.4505C67.5719 44.3703 68.168 44.9394 68.9617 44.9394C69.371 44.9394 69.6443 44.8394 69.8497 44.7471L69.9748 45.2917" fill="#1B1B1B"/>
<path d="M74.1629 44.3459C74.1629 44.7566 74.1737 45.1196 74.1969 45.4303H73.5514L73.5143 44.7812H73.4958C73.3151 45.1011 72.8842 45.5211 72.1754 45.5211C71.5499 45.5211 70.7979 45.1673 70.7979 43.7783V41.4541H71.5237V43.6476C71.5237 44.4043 71.7631 44.9212 72.4148 44.9212C72.9012 44.9212 73.241 44.5843 73.3738 44.2551C73.4139 44.1582 73.4402 44.0275 73.4402 43.886V41.4556H74.1629V44.3474" fill="#1B1B1B"/>
<path d="M75.3787 42.6952C75.3787 42.2261 75.371 41.8261 75.3447 41.4554H75.9794L76.0134 42.2384H76.0397C76.2204 41.7046 76.6651 41.3662 77.15 41.3662C77.2257 41.3662 77.2844 41.3739 77.3508 41.3893V42.0645C77.2674 42.0553 77.1933 42.0461 77.096 42.0461C76.5817 42.0461 76.2219 42.4337 76.1231 42.9675C76.1045 43.0736 76.0968 43.189 76.0968 43.312V45.4301H75.3741L75.3818 42.6937" fill="#1B1B1B"/>
<path d="M78.4423 40.7264C78.1705 40.7264 77.9883 40.5125 77.9883 40.2572C77.9883 40.0019 78.1798 39.7988 78.4593 39.7988C78.7388 39.7988 78.9211 40.0034 78.9211 40.2572C78.9211 40.511 78.7388 40.7264 78.4531 40.7264H78.4423ZM78.8207 45.4317H78.0979V41.457H78.8207V45.4317Z" fill="#1B1B1B"/>
<path d="M80.8992 40.505V41.4586H81.9386V42.0078H80.8992V44.152C80.8992 44.6442 81.0429 44.9242 81.4444 44.9242C81.639 44.9242 81.7579 44.9072 81.866 44.8734L81.8969 45.4241C81.7579 45.4733 81.5355 45.5225 81.2544 45.5225C80.9162 45.5225 80.6444 45.4072 80.4746 45.218C80.2738 44.9965 80.1919 44.6427 80.1919 44.1735V42.0062H79.5742V41.4571H80.1919V40.7249L80.9008 40.5034" fill="#1B1B1B"/>
<path d="M83.0934 41.4556L83.9598 43.8059C84.0602 44.0689 84.1559 44.3827 84.2239 44.6196H84.2409C84.3134 44.3827 84.3984 44.0766 84.4957 43.7905L85.2879 41.4556H86.0554L84.9651 44.2889C84.4463 45.6533 84.0911 46.3516 83.5969 46.7854C83.2355 47.0899 82.888 47.213 82.7073 47.2468L82.5267 46.6393C82.7073 46.5916 82.9483 46.4747 83.1614 46.2855C83.3591 46.1286 83.5984 45.8502 83.7714 45.481C83.8038 45.4072 83.827 45.3579 83.827 45.3087C83.827 45.2672 83.8131 45.2087 83.7714 45.1288L82.3027 41.4556H83.095" fill="#1B1B1B"/>
<path d="M58.8218 52.7736C59.1415 52.9812 59.6017 53.1351 60.0959 53.1351C60.8325 53.1351 61.2587 52.7567 61.2587 52.1891C61.2587 51.6815 60.9638 51.3784 60.2148 51.0985C59.3067 50.7709 58.7461 50.2925 58.7461 49.5203C58.7461 48.6589 59.4642 48.019 60.5406 48.019C61.1027 48.019 61.5213 48.1498 61.7637 48.2898L61.5645 48.8727C61.3931 48.7666 61.0224 48.6112 60.5221 48.6112C59.7607 48.6112 59.4719 49.0619 59.4719 49.4388C59.4719 49.9556 59.8102 50.211 60.5777 50.5063C61.5166 50.8785 61.9861 51.3215 61.9861 52.1352C61.9861 52.9889 61.3622 53.7365 60.0495 53.7365C59.5136 53.7365 58.9283 53.5734 58.6318 53.375L58.8233 52.7751" fill="#1B1B1B"/>
<path d="M63.7924 48.7174V49.6696H64.8317V50.2202H63.7924V52.3629C63.7924 52.8567 63.9345 53.1351 64.3375 53.1351C64.5368 53.1351 64.6526 53.1182 64.7591 53.0843L64.7931 53.635C64.6541 53.6873 64.4302 53.7335 64.1491 53.7335C63.8109 53.7335 63.5407 53.6196 63.3662 53.4304C63.17 53.2089 63.0835 52.8551 63.0835 52.3875V50.2172H62.4658V49.6665H63.0835V48.9374L63.7939 48.7144" fill="#1B1B1B"/>
<path d="M68.4587 52.6938C68.4587 53.0399 68.4773 53.3737 68.5159 53.6459H67.8657L67.7977 53.1475H67.7746C67.5615 53.4552 67.126 53.7351 66.553 53.7351C65.7469 53.7351 65.333 53.1691 65.333 52.5938C65.333 51.634 66.1886 51.1079 67.7313 51.1156V51.0325C67.7313 50.7064 67.6402 50.105 66.8248 50.1142C66.4465 50.1142 66.0588 50.2204 65.7762 50.4096L65.6125 49.9235C65.943 49.7189 66.4295 49.582 66.9329 49.582C68.1622 49.582 68.4572 50.4096 68.4572 51.2064V52.6938M67.7499 51.6186C66.9576 51.6001 66.0588 51.7416 66.0588 52.5123C66.0588 52.9907 66.3723 53.2014 66.7337 53.2014C67.2619 53.2014 67.6016 52.8737 67.7159 52.5369C67.7422 52.4631 67.7499 52.3815 67.7499 52.3062V51.6186Z" fill="#1B1B1B"/>
<path d="M69.6228 50.7449C69.6228 50.3265 69.6167 50.002 69.5889 49.6697H70.2329L70.2761 50.3204H70.29C70.4877 49.9497 70.9494 49.582 71.6088 49.582C72.1633 49.582 73.0188 49.9097 73.0188 51.2725V53.6459H72.2961V51.354C72.2961 50.7141 72.0536 50.1712 71.3695 50.1712C70.9 50.1712 70.5294 50.5065 70.3965 50.9095C70.3657 51.0018 70.3487 51.1341 70.3487 51.2479V53.6459H69.6213V50.7449" fill="#1B1B1B"/>
<path d="M77.648 47.8116V52.6184C77.648 52.9722 77.6542 53.3721 77.6774 53.6429H77.0272L76.9932 52.9538H76.9747C76.7539 53.3983 76.2751 53.7336 75.625 53.7336C74.6613 53.7336 73.9092 52.9215 73.9092 51.7124C73.9015 50.3834 74.7339 49.579 75.6991 49.579C76.3153 49.579 76.7292 49.8651 76.9021 50.1789H76.9207V47.8101H77.648M76.9207 51.2848C76.9207 51.1864 76.9145 51.0726 76.8867 50.9726C76.7801 50.5219 76.3863 50.1419 75.8396 50.1419C75.0876 50.1419 74.6428 50.8003 74.6428 51.6724C74.6428 52.4831 75.0474 53.1491 75.8257 53.1491C76.3107 53.1491 76.7554 52.8215 76.8867 52.2877C76.9129 52.1877 76.9207 52.0908 76.9207 51.9739V51.2833V51.2848Z" fill="#1B1B1B"/>
<path d="M81.6634 52.6938C81.6634 53.0399 81.6788 53.3737 81.7221 53.6459H81.0704L81.0024 53.1475H80.9793C80.763 53.4552 80.326 53.7351 79.7577 53.7351C78.9485 53.7351 78.5361 53.1691 78.5361 52.5938C78.5361 51.634 79.3932 51.1079 80.936 51.1156V51.0325C80.936 50.7064 80.8449 50.105 80.0295 50.1142C79.6511 50.1142 79.262 50.2204 78.984 50.4096L78.8172 49.9235C79.1492 49.7189 79.6372 49.582 80.136 49.582C81.3669 49.582 81.6634 50.4096 81.6634 51.2064V52.6938ZM80.9561 51.6186C80.1638 51.6001 79.262 51.7416 79.262 52.5123C79.262 52.9907 79.577 53.2014 79.9399 53.2014C80.4665 53.2014 80.8032 52.8737 80.9206 52.5369C80.9437 52.4631 80.9561 52.3815 80.9561 52.3062V51.6186Z" fill="#1B1B1B"/>
<path d="M82.8342 50.9095C82.8342 50.4419 82.8234 50.0389 82.8018 49.6682H83.438L83.4674 50.4511H83.4936C83.6743 49.9158 84.1191 49.582 84.6086 49.582C84.6797 49.582 84.7399 49.5882 84.8063 49.6036V50.2788C84.7229 50.2711 84.6519 50.2619 84.5484 50.2619C84.0403 50.2619 83.6758 50.6495 83.577 51.1817C83.56 51.2879 83.5523 51.4048 83.5523 51.5278V53.6475H82.8234L82.8342 50.911" fill="#1B1B1B"/>
<path d="M88.9192 47.8116V52.6184C88.9192 52.9722 88.9285 53.3721 88.9532 53.6429H88.3015L88.2675 52.9538H88.2536C88.0312 53.3983 87.551 53.7336 86.8977 53.7336C85.9341 53.7336 85.1866 52.9215 85.1866 51.7124C85.1773 50.3834 86.0097 49.579 86.9718 49.579C87.5911 49.579 88.0065 49.8651 88.1795 50.1789H88.1949V47.8101H88.9192M88.1949 51.2848C88.1949 51.1864 88.1872 51.0726 88.1641 50.9726C88.0529 50.5219 87.6591 50.1419 87.1155 50.1419C86.3618 50.1419 85.9202 50.8003 85.9202 51.6724C85.9202 52.4831 86.3201 53.1491 87.0969 53.1491C87.5849 53.1491 88.0297 52.8215 88.1641 52.2877C88.1888 52.1877 88.1949 52.0908 88.1949 51.9739V51.2833V51.2848Z" fill="#1B1B1B"/>
<path d="M90.0262 52.9153C90.2486 53.0476 90.627 53.1952 90.9883 53.1952C91.5088 53.1952 91.7528 52.9399 91.7528 52.6046C91.7528 52.2692 91.5489 52.0693 91.0223 51.8739C90.298 51.6109 89.9583 51.2233 89.9583 50.7464C89.9583 50.1081 90.488 49.582 91.3343 49.582C91.7404 49.582 92.0941 49.6866 92.3118 49.8281L92.1373 50.3465C91.9783 50.2542 91.6926 50.1142 91.3188 50.1142C90.8926 50.1142 90.6594 50.3619 90.6594 50.6572C90.6594 50.9925 90.8926 51.1418 91.4084 51.3386C92.0941 51.5924 92.457 51.9401 92.457 52.5384C92.457 53.2445 91.9072 53.7382 90.9744 53.7382C90.5359 53.7382 90.1312 53.6228 89.8486 53.4583L90.0247 52.9168" fill="#1B1B1B"/>
<path d="M99.0392 53.4735C98.7844 53.6042 98.2485 53.7349 97.5721 53.7349C96.0046 53.7349 94.834 52.749 94.834 50.9262C94.834 49.1035 96.0123 48.019 97.7373 48.019C98.4199 48.019 98.8647 48.1667 99.0546 48.2667L98.8739 48.8497C98.6098 48.7189 98.2222 48.6174 97.7636 48.6174C96.4586 48.6174 95.5938 49.448 95.5938 50.9016C95.5938 52.266 96.3737 53.1289 97.7188 53.1289C98.1666 53.1289 98.6098 53.0381 98.9033 52.8982L99.0392 53.4735Z" fill="#1B1B1B"/>
<path d="M101.44 53.7351C100.367 53.7351 99.5254 52.946 99.5254 51.6909C99.5254 50.3604 100.407 49.582 101.504 49.582C102.6 49.582 103.422 50.4096 103.422 51.6186C103.422 53.0952 102.393 53.7351 101.445 53.7351H101.437M101.46 53.1937C102.154 53.1937 102.673 52.5446 102.673 51.6401C102.673 50.9679 102.335 50.1219 101.476 50.1219C100.617 50.1219 100.254 50.9095 100.254 51.6647C100.254 52.5354 100.752 53.1922 101.451 53.1922H101.46V53.1937Z" fill="#1B1B1B"/>
<path d="M107.681 52.5628C107.681 52.9735 107.687 53.3349 107.711 53.6441H107.072L107.029 52.995H107.015C106.833 53.3149 106.403 53.7349 105.691 53.7349C105.068 53.7349 104.315 53.3826 104.315 51.9936V49.6694H105.043V51.8629C105.043 52.6197 105.281 53.1365 105.934 53.1365C106.417 53.1365 106.757 52.8012 106.89 52.472C106.933 52.3705 106.955 52.2413 106.955 52.1028V49.6694H107.682V52.5628" fill="#1B1B1B"/>
<path d="M108.884 50.7449C108.884 50.3265 108.877 50.002 108.854 49.6697H109.493L109.536 50.3204H109.553C109.751 49.9497 110.213 49.582 110.872 49.582C111.425 49.582 112.28 49.9097 112.28 51.2725V53.6459H111.558V51.354C111.558 50.7141 111.317 50.1712 110.629 50.1712C110.163 50.1712 109.788 50.5065 109.655 50.9095C109.626 51.0018 109.609 51.1341 109.609 51.2479V53.6459H108.881V50.7449" fill="#1B1B1B"/>
<path d="M116.308 53.5075C116.118 53.5967 115.699 53.7367 115.162 53.7367C113.957 53.7367 113.173 52.9245 113.173 51.7001C113.173 50.4757 114.011 49.582 115.321 49.582C115.744 49.582 116.127 49.6851 116.322 49.7912L116.16 50.3465C115.984 50.2542 115.712 50.1542 115.321 50.1542C114.401 50.1542 113.906 50.8357 113.906 51.6663C113.906 52.5846 114.501 53.1522 115.293 53.1522C115.704 53.1522 115.979 53.0537 116.183 52.963L116.306 53.5059" fill="#1B1B1B"/>
<path d="M117.503 48.9388C117.23 48.9388 117.049 48.725 117.049 48.4712C117.049 48.2174 117.239 48.0098 117.517 48.0098C117.795 48.0098 117.977 48.2159 117.977 48.4712C117.977 48.7266 117.796 48.9388 117.507 48.9388H117.501M117.878 53.6441H117.152V49.6679H117.878V53.6441Z" fill="#1B1B1B"/>
<path d="M119.812 47.8115H119.086V53.6443H119.812V47.8115Z" fill="#1B1B1B"/>
<mask id="mask2_921_77" style="mask-type:luminance" maskUnits="userSpaceOnUse" x="0" y="0" width="120" height="86">
<path d="M120 0H0V85.9985H120V0Z" fill="white"/>
</mask>
<g mask="url(#mask2_921_77)">
<path d="M55.1323 51.0017L12.4503 64.3686L0 30.6454L44.8085 28.1396L55.1323 51.0017Z" fill="#1B1B1B"/>
</g>
<path d="M22.8617 44.2415C22.8617 45.0952 22.6733 45.8443 22.2888 46.498C21.9119 47.1502 21.3761 47.6901 20.6873 48.1223C19.9985 48.5576 19.1708 48.8822 18.1994 49.0991C17.2296 49.3159 16.1562 49.4236 14.9748 49.4236H14.1069V53.7674H8.55664V39.29H15.0567C17.4859 39.29 19.3962 39.6992 20.7799 40.5175C22.1683 41.3358 22.8602 42.5787 22.8602 44.2415M17.5322 44.303C17.5322 43.0463 16.5979 42.4172 14.7293 42.4172H14.0498V46.298H14.6752C15.5987 46.298 16.306 46.138 16.7971 45.815C17.2867 45.4905 17.5307 44.989 17.5307 44.303H17.5322Z" fill="white"/>
<path d="M36.5754 53.7566C35.723 53.9181 34.7562 53.9996 33.6752 53.9996C32.1417 53.9996 30.7719 53.8243 29.5658 53.4736C28.3643 53.1259 27.345 52.6291 26.5095 51.9846C25.6741 51.3386 25.0394 50.5572 24.6054 49.6358C24.1699 48.7083 23.9521 47.6808 23.9521 46.5487C23.9521 45.4166 24.1838 44.409 24.6471 43.4846C25.1119 42.5601 25.7652 41.7726 26.6099 41.1142C27.4516 40.4574 28.4585 39.9498 29.626 39.5914C30.7889 39.2361 32.0753 39.0562 33.476 39.0562C34.557 39.0562 35.5593 39.0885 36.4364 39.2777C37.3183 39.4699 37.3368 39.4961 38.0364 39.7483L38.0271 43.6323C37.4804 43.3246 36.8611 43.0708 36.1801 42.8662C35.499 42.6647 34.7686 42.5617 33.9918 42.5617C32.7378 42.5617 31.7216 42.9062 30.9325 43.5892C30.1464 44.2768 29.7542 45.255 29.7542 46.5271C29.7542 47.187 29.8777 47.7623 30.1217 48.2591C30.3704 48.7575 30.7024 49.1697 31.1178 49.4974C31.5363 49.8281 32.0228 50.0757 32.5834 50.2403C33.144 50.4095 33.7447 50.4941 34.3902 50.4941C35.0357 50.4941 35.7044 50.4234 36.3392 50.2849C36.9739 50.1449 37.6503 49.9419 38.3715 49.6758L38.3792 53.3028C37.502 53.5582 37.431 53.5951 36.5785 53.7566" fill="white"/>
<path d="M46.2234 39.29H40.6484V53.7674H46.2234V39.29Z" fill="white"/>
<path d="M46.8224 34.7537C46.8224 35.7274 46.4966 36.495 45.8495 37.0487C45.2009 37.604 44.3978 37.8809 43.4434 37.8809C42.489 37.8809 41.686 37.604 41.0374 37.0487C40.3872 36.4934 40.0645 35.7274 40.0645 34.7537C40.0645 33.7801 40.3872 32.9818 41.0374 32.428C41.686 31.8712 42.489 31.5928 43.4434 31.5928C44.3978 31.5928 45.2009 31.8712 45.8495 32.428C46.4966 32.9818 46.8224 33.7585 46.8224 34.7537Z" fill="white"/>
<path d="M115.94 40.376H115.293V39.9253H117.135V40.376H116.481V42.3126H115.94V40.376Z" fill="#1B1B1B"/>
<path d="M119.435 41.3959C119.424 41.1113 119.412 40.7668 119.412 40.4145H119.407C119.328 40.7191 119.228 41.0606 119.137 41.3405L118.842 42.2711H118.42L118.164 41.3513C118.087 41.0667 118.008 40.7298 117.948 40.4145H117.943C117.927 40.7375 117.914 41.1082 117.901 41.4036L117.855 42.3111H117.354L117.504 39.9238H118.227L118.463 40.7237C118.541 40.9975 118.612 41.2959 118.666 41.5728H118.678C118.743 41.2974 118.822 40.9852 118.908 40.716L119.158 39.9238H119.872L119.998 42.3111H119.472L119.432 41.3959" fill="#1B1B1B"/>
</g>
<defs>
<radialGradient id="paint0_radial_921_77" cx="0" cy="0" r="1" gradientUnits="userSpaceOnUse" gradientTransform="translate(53.5374 50.8417) scale(42.8166 42.6465)">
<stop stop-color="white"/>
<stop offset="0.25" stop-color="white"/>
<stop offset="1" stop-color="#4B4B4B"/>
</radialGradient>
<clipPath id="clip0_921_77">
<rect width="120" height="71" fill="white"/>
</clipPath>
</defs>
</svg>
