<svg width="165" height="32" viewBox="0 0 165 32" fill="none" xmlns="http://www.w3.org/2000/svg">
<path d="M164.186 24.2759C164.186 23.9606 163.873 23.8345 163.592 23.8345H163.06V25.4108H163.341V24.7803H163.56L163.905 25.4108H164.249L163.842 24.7172C163.939 24.7021 164.027 24.6523 164.09 24.577C164.153 24.5017 164.187 24.406 164.186 24.3074V24.2759ZM163.341 24.5281V24.0867H163.592C163.748 24.0867 163.905 24.1182 163.905 24.3074C163.905 24.4966 163.717 24.5281 163.56 24.5281H163.341ZM163.592 23.267C163.319 23.2733 163.055 23.3608 162.832 23.5184C162.609 23.676 162.438 23.8966 162.339 24.1524C162.241 24.4082 162.22 24.6876 162.279 24.9554C162.338 25.2231 162.475 25.4672 162.672 25.6567C162.869 25.8463 163.117 25.9727 163.385 26.0201C163.654 26.0675 163.93 26.0338 164.179 25.9231C164.428 25.8124 164.639 25.6298 164.785 25.3983C164.931 25.1669 165.006 24.8969 165 24.6227C165 24.4378 164.963 24.2548 164.892 24.0844C164.821 23.914 164.717 23.7597 164.586 23.6304C164.454 23.5012 164.299 23.3997 164.128 23.3319C163.958 23.264 163.775 23.2313 163.592 23.2355V23.267ZM163.592 25.7892C163.355 25.7891 163.124 25.7179 162.928 25.5849C162.732 25.4518 162.579 25.2628 162.49 25.042C162.401 24.8213 162.379 24.5788 162.428 24.3456C162.476 24.1124 162.593 23.899 162.762 23.7328C162.932 23.5666 163.147 23.455 163.379 23.4124C163.612 23.3698 163.852 23.3981 164.069 23.4936C164.286 23.5891 164.469 23.7476 164.596 23.9487C164.723 24.1498 164.787 24.3845 164.781 24.6227C164.781 24.9404 164.656 25.2451 164.433 25.4698C164.21 25.6945 163.907 25.8207 163.592 25.8207V25.7892ZM74.081 23.4877C72.0467 23.4877 71.0138 21.6276 71.0138 19.8621C71.0138 18.0966 72.1406 16.331 73.9871 16.331C74.8634 16.331 75.9588 16.7724 76.397 17.403L78.5252 15.2276C77.9241 14.6431 77.2128 14.1858 76.4334 13.8826C75.654 13.5793 74.8222 13.4364 73.9871 13.4621C70.2314 13.4621 67.5085 16.1734 67.5085 19.8936C67.5085 23.6768 70.2001 26.3566 74.081 26.3566C75.8962 26.3566 77.5863 25.8207 78.5878 24.7172L76.4909 22.4473C76.1793 22.7751 75.8053 23.0362 75.3912 23.2149C74.9771 23.3937 74.5315 23.4865 74.081 23.4877ZM62.0315 26.0099H65.4116V13.8089H62.0628L62.0315 26.0099ZM55.9285 20.4926C55.9285 21.9113 54.9896 23.4562 53.2995 23.4562C51.9537 23.4562 51.2339 22.5103 51.2339 20.5241V13.8404H47.8851V21.4069C47.8851 23.9291 49.137 26.3882 52.4858 26.3882C54.0506 26.3882 55.3651 25.1271 56.0224 24.1813H56.085V26.0414H59.2773V13.8089H55.9285V20.4926ZM41.8447 15.3537H41.7821C41.3126 14.8177 40.0294 13.4621 37.9638 13.4621C34.5524 13.4621 31.9234 16.1419 31.9234 19.8621C31.9234 23.6453 34.3646 26.3566 37.8073 26.3566C38.5436 26.3338 39.2676 26.1599 39.9349 25.8455C40.6022 25.5311 41.1988 25.0828 41.6882 24.5281H41.7508V32H45.0683V13.8089H41.8759L41.8447 15.3537ZM38.621 23.4877C36.5554 23.4877 35.3661 21.6591 35.3661 19.8621C35.3661 18.1281 36.4302 16.2995 38.621 16.2995C40.5928 16.2995 41.8134 18.1911 41.8134 19.8936C41.8134 21.5961 40.6241 23.4877 38.621 23.4877ZM114.768 13.4621C110.981 13.4621 108.195 16.1419 108.195 19.8621C108.195 23.7084 111.012 26.3882 114.768 26.3882C118.523 26.3882 121.34 23.6768 121.34 19.8621C121.34 16.1419 118.586 13.4621 114.768 13.4621ZM114.768 23.4877C112.577 23.4877 111.607 21.5961 111.607 19.8621C111.607 18.1281 112.608 16.2995 114.768 16.2995C116.927 16.2995 117.991 18.1281 117.991 19.8621C117.991 21.5961 116.99 23.4877 114.799 23.4877H114.768ZM156.581 18.5064C154.86 18.0966 154.234 17.8759 154.234 17.1507C154.234 16.2049 155.486 15.9842 156.018 15.9842C157.05 15.9842 158.208 16.6148 158.678 17.1823L160.65 15.2906C159.711 14.1557 157.927 13.4936 156.049 13.4936C153.608 13.4936 151.073 14.7232 151.073 17.4345C151.073 19.799 152.919 20.4926 154.703 20.934C156.581 21.3754 157.27 21.6906 157.27 22.4788C157.27 23.5823 156.018 23.7714 155.548 23.7714C154.972 23.7445 154.407 23.6024 153.886 23.3535C153.364 23.1045 152.898 22.7536 152.512 22.3212L150.478 24.402C151.573 25.6631 153.483 26.3882 155.423 26.3882C158.709 26.3882 160.65 24.8118 160.65 22.2266C160.65 19.7675 158.271 18.9163 156.581 18.5064ZM150.228 13.8089H145.909L141.59 18.8532H141.527V7.0936H138.178V26.0099H141.527V20.0197H141.59L146.065 26.0099H150.447L145.251 19.3576L150.228 13.8089ZM100.653 13.4936C99.0876 13.4936 97.9922 14.1241 96.8968 15.133H96.8655V7.0936H93.5167V26.0099H96.709V24.2759H96.7716C97.1835 24.9081 97.7456 25.4268 98.4069 25.7846C99.0683 26.1425 99.8079 26.3283 100.559 26.3251C104.001 26.3251 106.63 23.6138 106.63 19.8621C106.63 16.1419 104.064 13.4621 100.653 13.4621V13.4936ZM99.9953 23.4877C97.9609 23.4877 96.7716 21.6591 96.7716 19.8936C96.7716 18.1281 98.0235 16.2995 99.9953 16.2995C102.155 16.2995 103.219 18.1281 103.219 19.8621C103.219 21.6591 102.061 23.4877 99.9953 23.4877ZM92.2648 13.8089H87.9458L83.6267 18.8532H83.5641V7.0936H80.2153V26.0099H83.5641V20.0197H83.6267L88.1022 26.0099H92.4839L87.3198 19.3576L92.2648 13.8089ZM129.446 13.4936C125.628 13.4936 122.874 16.1734 122.874 19.8621C122.874 23.7084 125.69 26.3882 129.446 26.3882C133.202 26.3882 136.019 23.6768 136.019 19.8621C136.019 16.1419 133.233 13.4621 129.446 13.4621V13.4936ZM129.446 23.4877C127.255 23.4877 126.254 21.5961 126.254 19.8621C126.254 18.1281 127.255 16.2995 129.446 16.2995C131.637 16.2995 132.607 18.1281 132.607 19.8621C132.607 21.5961 131.606 23.4877 129.446 23.4877Z" fill="#1B1B1B"/>
<path d="M14.0838 28.3744C21.8621 28.3744 28.1677 22.0226 28.1677 14.1872C28.1677 6.35182 21.8621 0 14.0838 0C6.30555 0 0 6.35182 0 14.1872C0 22.0226 6.30555 28.3744 14.0838 28.3744Z" fill="#1B1B1B"/>
<path d="M3.91218 14.1872C3.91218 15.6505 4.48922 17.0538 5.51637 18.0885C6.54351 19.1232 7.93662 19.7044 9.38923 19.7044H10.1717V17.6552H9.38923C8.47616 17.6552 7.60049 17.2898 6.95486 16.6394C6.30922 15.9891 5.94651 15.107 5.94651 14.1872C5.94651 13.2674 6.30922 12.3853 6.95486 11.735C7.60049 11.0846 8.47616 10.7192 9.38923 10.7192H11.2671V21.4384C11.2671 21.7075 11.3197 21.974 11.4219 22.2226C11.5242 22.4713 11.674 22.6972 11.8629 22.8875C12.0518 23.0778 12.2761 23.2287 12.5229 23.3317C12.7697 23.4347 13.0343 23.4877 13.3014 23.4877V8.66995H9.38923C7.93662 8.66995 6.54351 9.25123 5.51637 10.2859C4.48922 11.3206 3.91218 12.7239 3.91218 14.1872ZM18.7785 8.66995H17.996V10.7192H18.7785C19.6915 10.7192 20.5672 11.0846 21.2128 11.735C21.8585 12.3853 22.2212 13.2674 22.2212 14.1872C22.2212 15.107 21.8585 15.9891 21.2128 16.6394C20.5672 17.2898 19.6915 17.6552 18.7785 17.6552H16.9006V6.93596C16.9006 6.39246 16.6863 5.87123 16.3048 5.48691C15.9233 5.1026 15.4058 4.8867 14.8663 4.8867V19.7044H18.7785C19.4977 19.7044 20.2099 19.5617 20.8744 19.2845C21.5389 19.0072 22.1427 18.6008 22.6513 18.0885C23.1599 17.5761 23.5633 16.9679 23.8386 16.2985C24.1138 15.6292 24.2555 14.9117 24.2555 14.1872C24.2555 13.4627 24.1138 12.7452 23.8386 12.0758C23.5633 11.4065 23.1599 10.7982 22.6513 10.2859C22.1427 9.77359 21.5389 9.36719 20.8744 9.08993C20.2099 8.81266 19.4977 8.66995 18.7785 8.66995Z" fill="white"/>
<path d="M45.6942 3.24729C45.8799 3.24729 46.0615 3.19182 46.2159 3.08789C46.3703 2.98397 46.4906 2.83625 46.5617 2.66342C46.6327 2.4906 46.6513 2.30043 46.6151 2.11696C46.5789 1.93349 46.4895 1.76496 46.3582 1.63269C46.2268 1.50041 46.0595 1.41033 45.8774 1.37384C45.6953 1.33734 45.5065 1.35607 45.3349 1.42766C45.1634 1.49925 45.0167 1.62047 44.9135 1.77601C44.8104 1.93155 44.7553 2.11441 44.7553 2.30148C44.7553 2.55232 44.8542 2.79289 45.0303 2.97027C45.2064 3.14764 45.4452 3.24729 45.6942 3.24729ZM40.1546 3.87783C39.7649 3.8773 39.3828 3.98616 39.0511 4.1922C38.7194 4.39825 38.4512 4.69333 38.2767 5.04433H38.2141V4.03547H36.7745V10.2463H38.308V6.84138C38.308 6.02168 38.7775 5.17044 39.7477 5.17044C40.7179 5.17044 40.9057 6.08473 40.9057 6.80985V10.2778H42.4393V6.33695C42.4393 5.07586 41.7821 3.81478 40.1546 3.81478V3.87783ZM33.6447 10.2463H35.2096V4.03547H33.6447V10.2463ZM61.6559 3.21576C61.8416 3.21576 62.0232 3.16029 62.1776 3.05637C62.332 2.95244 62.4523 2.80472 62.5234 2.6319C62.5944 2.45907 62.613 2.2689 62.5768 2.08543C62.5406 1.90196 62.4511 1.73343 62.3198 1.60116C62.1885 1.46889 62.0212 1.37881 61.8391 1.34231C61.657 1.30582 61.4682 1.32455 61.2966 1.39613C61.125 1.46772 60.9784 1.58895 60.8752 1.74449C60.7721 1.90002 60.717 2.08289 60.717 2.26995C60.717 2.5208 60.8159 2.76137 60.992 2.93874C61.1681 3.11612 61.4069 3.21576 61.6559 3.21576ZM59.1521 4.03547V5.42266H60.8735V10.2463H62.4384V5.42266H64.1597V4.03547H59.1521ZM56.5231 10.2463H58.088V4.03547H56.5231V10.2463ZM43.2217 5.42266H44.9431V10.2463H46.508V5.42266H48.2293V4.03547H43.2217V5.42266ZM53.4247 7.47192C53.4247 8.29163 52.9552 9.14286 51.985 9.14286C51.0148 9.14286 50.827 8.19704 50.827 7.47192V4.03547H49.2621V7.9133C49.2621 9.17438 49.9507 10.4355 51.5468 10.4355C51.9418 10.4419 52.3306 10.3359 52.6684 10.1295C53.0061 9.9231 53.2792 9.62481 53.456 9.26897H53.4873V10.2778H54.9583V4.03547H53.3934V7.44039L53.4247 7.47192Z" fill="#1B1B1B"/>
</svg>
