<svg width="772" height="297" viewBox="0 0 772 297" fill="none" xmlns="http://www.w3.org/2000/svg">
<g clip-path="url(#clip0_561_33)">
<path d="M0 133V0H63.76C78.82 0 87.43 1.37 94.86 5.08C105.23 10.17 111.88 20.14 111.88 33.44C111.88 49.87 101.91 59.26 90.76 62.97C104.64 67.28 115.99 76.86 115.99 95.64C115.99 108.94 110.5 118.91 101.11 125.37C91.53 132.01 79.2 133 67.28 133H0ZM71 29.53C68.07 27.58 64.54 27.18 56.92 27.18H35.8V51.63H56.73C65.34 51.63 68.66 51.24 71.99 48.5C74.34 46.35 75.51 43.02 75.51 38.91C75.51 34.8 73.76 31.28 71.01 29.52L71 29.53ZM35.79 105.42H57.7C64.94 105.42 68.26 105.03 71 104.05C76.08 102.29 79.02 97.99 79.02 91.73C79.02 85.47 76.08 81.16 71 79.41C68.26 78.43 64.94 78.03 57.7 78.03H35.79V105.41V105.42Z" fill="white"/>
<path d="M162.51 133H126.72V39.9H162.12V52.22C164.67 45.18 175.22 37.75 188.33 37.75C189.5 37.75 190.48 37.75 191.65 37.94V68.65C188.52 67.87 185.01 67.67 182.46 67.67C171.51 67.67 166.03 72.96 163.88 80.78C162.9 84.3 162.5 88.6 162.5 93.3V133H162.51Z" fill="white"/>
<path d="M245.82 37.3501C276.33 37.3501 296.67 56.3201 296.67 86.6401C296.67 116.96 276.71 135.34 245.82 135.34C214.93 135.34 195.17 117.15 195.17 86.6401C195.17 56.1301 215.31 37.3501 245.82 37.3501ZM245.82 110.11C256.77 110.11 261.27 99.7501 261.27 86.2501C261.27 72.7501 256.77 62.3801 245.82 62.3801C234.87 62.3801 230.56 72.7501 230.56 86.2501C230.56 99.7501 234.87 110.11 245.82 110.11Z" fill="white"/>
<path d="M353.57 37.3501C384.08 37.3501 404.42 56.3201 404.42 86.6401C404.42 116.96 384.46 135.34 353.57 135.34C322.68 135.34 302.92 117.15 302.92 86.6401C302.92 56.1301 323.06 37.3501 353.57 37.3501ZM353.57 110.11C364.52 110.11 369.02 99.7501 369.02 86.2501C369.02 72.7501 364.52 62.3801 353.57 62.3801C342.62 62.3801 338.31 72.7501 338.31 86.2501C338.31 99.7501 342.62 110.11 353.57 110.11Z" fill="white"/>
<path d="M451.34 0V64.94L474.42 39.9H519.21L479.89 78.04L520.77 133H477.93L456.62 100.14L451.33 105.22V133H415.54V0H451.33H451.34Z" fill="white"/>
<path d="M562.22 133H526.23V0H561.82L562.22 133Z" fill="white"/>
<path d="M568.47 39.8999H605.82L614.82 79.4099C616.77 87.8199 618.53 98.1899 619.12 101.7H619.32C619.9 98.1799 621.67 87.6199 623.43 79.5999L632.04 39.8999H669.2L634.78 142.39C631.46 152.36 628.52 159.02 623.83 163.32C618.35 168.21 610.73 170.17 596.06 170.17C589.02 170.17 583.93 169.77 578.45 169.19V144.54C578.45 144.54 582.96 144.94 586.47 144.94C592.73 144.94 596.06 143.96 598.01 141.61C598.99 140.44 599.57 138.88 599.57 136.52C599.57 134.16 598.99 131.05 597.42 126.36L568.47 39.8999Z" fill="white"/>
<path d="M710.64 50.07C715.53 43.23 725.31 37.55 738.61 37.55C748.98 37.55 757.39 40.48 762.86 46.55C768.73 53.19 771.08 59.84 771.08 80.38V133H735.28V80.1901C735.28 71.2001 733.91 64.5401 723.94 64.5401C715.73 64.5401 711.04 70.0301 711.04 79.8001V133H675.24V39.9001H710.64V50.07Z" fill="white"/>
<path d="M35.79 190.98V211.71H93.1V241.24H35.79V263.94H102.68V294.06H0V161.05H98.77V190.98H35.79Z" fill="white"/>
<path d="M149.42 198.41C162.91 198.41 172.1 204.08 176.6 209.56V161.05H212.39V294.05H176.6V285.64C172.29 290.33 163.3 296.39 149.8 296.39C125.15 296.39 108.92 278.01 108.92 247.49C108.92 216.97 125.55 198.4 149.41 198.4L149.42 198.41ZM160.56 271.17C171.13 271.17 177.19 261.4 177.19 247.12C177.19 232.84 171.13 223.26 160.56 223.26C149.99 223.26 145.11 232.25 145.11 247.12C145.11 261.99 150 271.17 160.56 271.17Z" fill="white"/>
<path d="M264.39 190.78H228.4V161.05H264L264.39 190.78ZM264.39 294.05H228.4V200.95H264L264.39 294.05Z" fill="white"/>
<path d="M325.6 259.05C325.6 264.33 326.18 266.87 327.95 268.64C329.91 270.79 333.62 271.37 338.12 271.37C342.03 271.37 344.78 270.97 345.94 270.79V294.45C342.23 295.05 334.6 296.01 325.01 296.01C312.69 296.01 299.78 294.45 294.7 287.6C290.59 282.12 290.01 277.23 290.01 268.24V225.21H272.21V200.96H290.01V169.86L325.6 163.6V200.95H345.75V225.2H325.6V259.04V259.05Z" fill="white"/>
<path d="M393.26 190.78H357.27V161.05H392.87L393.26 190.78ZM393.26 294.05H357.27V200.95H392.87L393.26 294.05Z" fill="white"/>
<path d="M454.85 198.41C485.36 198.41 505.7 217.38 505.7 247.7C505.7 278.02 485.74 296.4 454.85 296.4C423.96 296.4 404.2 278.21 404.2 247.7C404.2 217.19 424.34 198.41 454.85 198.41ZM454.85 271.17C465.8 271.17 470.3 260.81 470.3 247.31C470.3 233.81 465.8 223.44 454.85 223.44C443.9 223.44 439.59 233.81 439.59 247.31C439.59 260.81 443.9 271.17 454.85 271.17Z" fill="white"/>
<path d="M552.24 211.12C557.13 204.28 566.91 198.6 580.21 198.6C590.58 198.6 598.99 201.53 604.46 207.6C610.33 214.24 612.68 220.89 612.68 241.43V294.05H576.89V241.24C576.89 232.25 575.51 225.59 565.54 225.59C557.32 225.59 552.63 231.08 552.63 240.85V294.05H516.84V200.95H552.24V211.12Z" fill="white"/>
<path d="M639.26 258.45C645.32 266.27 656.27 272.93 670.74 272.93C679.35 272.93 684.04 270.97 684.04 266.87C684.04 262.56 677.78 261.39 669.76 259.83L657.44 257.28C643.16 254.15 624.78 249.85 624.78 229.31C624.78 206.62 647.47 198.4 666.83 198.4C686.19 198.4 701.65 206.22 709.67 213.86L692.65 231.46C686.59 226.57 677.59 221.69 665.66 221.69C660.18 221.69 654.91 223.25 654.91 227.16C654.91 231.47 660.19 232.45 668.4 234.01L682.1 236.74C698.53 240.07 713 246.33 713 264.71C713 286.81 693.44 296.4 669.39 296.4C648.07 296.4 630.66 288.38 620.3 275.86L639.27 258.45H639.26Z" fill="white"/>
</g>
<defs>
<clipPath id="clip0_561_33">
<rect width="771.08" height="296.4" fill="#f2f2ea"/>
</clipPath>
</defs>
</svg>
