<svg width="776" height="508" viewBox="0 0 776 508" fill="none" xmlns="http://www.w3.org/2000/svg">
<g clip-path="url(#clip0_607_44)">
<path d="M293.08 0H379.44C439.61 0 461.2 26.19 461.2 64.06C461.2 89.19 449.17 104.41 428.64 112.55C452.35 118.57 473.59 138.03 473.59 170.59C473.59 221.91 436.43 239.25 379.8 239.25H293.09V0H293.08ZM373.42 93.79C397.13 93.79 404.92 84.59 404.92 69.01C404.92 54.5 397.13 44.24 373.07 44.24H347.94V93.79H373.42ZM379.44 195.01C407.75 195.01 416.96 184.04 416.96 166.34C416.96 148.64 407.76 138.03 379.44 138.03H347.94V195.01H379.44Z" fill="#f2f2ea"/>
<path d="M630.71 166.34V239.25H575.85V0H630.71V97.68L711.76 0H775.82L693.71 98.74L775.46 239.25H712.82L656.9 137.68L630.71 166.35V166.34Z" fill="#f2f2ea"/>
<path d="M0 446.03L81.05 402.14L0 357.9V297.03L116.09 366.04L239.25 295.96V357.19L155.02 402.14L239.25 446.73V507.96L116.09 437.89L0 506.9V446.03Z" fill="#f2f2ea"/>
</g>
<defs>
<clipPath id="clip0_607_44">
<rect width="775.82" height="507.97" fill="#f2f2ea"/>
</clipPath>
</defs>
</svg>
